<svg width="20" height="20" viewBox="0 0 20 20" fill="none" xmlns="http://www.w3.org/2000/svg">
<path d="M10.625 0H15.4727C15.9688 0 16.4453 0.199219 16.7969 0.550781L19.4492 3.20312C19.8008 3.55469 20 4.03125 20 4.52734V13.125C20 14.1602 19.1602 15 18.125 15H10.625C9.58984 15 8.75 14.1602 8.75 13.125V1.875C8.75 0.839844 9.58984 0 10.625 0ZM1.875 5H7.5V7.5H2.5V17.5H10V16.25H12.5V18.125C12.5 19.1602 11.6602 20 10.625 20H1.875C0.839844 20 0 19.1602 0 18.125V6.875C0 5.83984 0.839844 5 1.875 5Z" fill="#5A5A5A"/>
</svg>
