<svg width="18" height="18" viewBox="0 0 18 18" fill="none" xmlns="http://www.w3.org/2000/svg">
<path d="M13.75 7.5C15.8203 7.5 17.5 5.82031 17.5 3.75C17.5 1.67969 15.8203 0 13.75 0C11.6797 0 10 1.67969 10 3.75C10 3.90625 10.0078 4.0625 10.0273 4.21484L6.35156 6.05078C5.67969 5.39844 4.76172 5 3.75 5C1.67969 5 0 6.67969 0 8.75C0 10.8203 1.67969 12.5 3.75 12.5C4.76172 12.5 5.67969 12.1016 6.35156 11.4492L10.0273 13.2852C10.0078 13.4375 10 13.5898 10 13.75C10 15.8203 11.6797 17.5 13.75 17.5C15.8203 17.5 17.5 15.8203 17.5 13.75C17.5 11.6797 15.8203 10 13.75 10C12.7383 10 11.8203 10.3984 11.1484 11.0508L7.47266 9.21484C7.49219 9.0625 7.5 8.91016 7.5 8.75C7.5 8.58984 7.49219 8.4375 7.47266 8.28516L11.1484 6.44922C11.8203 7.10156 12.7383 7.5 13.75 7.5Z" fill="#5A5A5A"/>
</svg>
