<svg width="21" height="20" viewBox="0 0 21 20" fill="none" xmlns="http://www.w3.org/2000/svg">
<path d="M8.27539 1.22754C9.2571 0.439084 10.8027 0.39367 11.8691 1.08984L12.0762 1.23926L18.625 6.47852C18.9847 6.77337 19.3013 7.23872 19.5068 7.77637C19.712 8.31318 19.7867 8.87148 19.7178 9.33105L18.459 16.8672C18.2183 18.2534 16.8642 19.4004 15.4697 19.4004H4.87012C3.543 19.4004 2.29834 18.418 1.94922 17.1387L1.8916 16.8789L0.631836 9.34082V9.33984L0.609375 9.16113C0.57302 8.736 0.648671 8.24793 0.828125 7.77734C1.03317 7.23975 1.35432 6.77435 1.72363 6.47949L1.72559 6.47852L8.27539 1.22852V1.22754ZM10.1699 11.6504C9.42856 11.6504 8.82032 12.2586 8.82031 13V16C8.82031 16.7414 9.42855 17.3496 10.1699 17.3496C10.9113 17.3496 11.5195 16.7414 11.5195 16V13C11.5195 12.2586 10.9113 11.6504 10.1699 11.6504Z" stroke="#B0B0B0" stroke-width="1.2"/>
</svg>
