<svg width="25" height="23" viewBox="0 0 25 23" fill="none" xmlns="http://www.w3.org/2000/svg">
<path d="M12.1961 7.06798C9.16835 7.06798 6.14172 7.14976 3.11621 7.31333C1.57693 7.40385 0.19058 8.70159 0.0976806 10.178C-0.101458 13.6467 0.00335159 16.1674 0.41878 19.6309C0.606486 21.1035 2.01809 22.4565 3.48876 22.6013C6.38628 22.8671 9.28872 23.0001 12.1961 23.0001C15.1035 23.0001 18.0059 22.8671 20.9034 22.6013C22.3741 22.4584 23.7857 21.1035 23.9734 19.6309C24.3888 16.1674 24.4936 13.6467 24.2969 10.178C24.2064 8.70111 22.8176 7.40385 21.2784 7.31095C18.2522 7.14548 15.2248 7.06449 12.1961 7.06798Z" fill="white"/>
<path d="M3.03632 5.97937H3.04394C6.05056 5.81501 9.13102 5.73402 12.1962 5.73402C15.2615 5.73402 18.3419 5.81739 21.3485 5.98175H21.3562C22.4895 6.04988 23.5424 6.56392 24.3204 7.33428C24.3128 7.16658 24.3043 7.00365 24.2951 6.84548C24.2046 5.36861 22.8183 4.07135 21.2761 3.97845C18.1001 3.80504 14.9226 3.72309 11.7436 3.73262C11.5855 3.733 11.4291 3.69912 11.2853 3.63333C11.1414 3.56754 11.0136 3.4714 10.9104 3.3515C10.1005 2.40725 9.31492 1.47206 8.56362 0.554974C8.41495 0.370712 8.22455 0.224487 8.00816 0.12839C7.79178 0.0322933 7.55563 -0.0109146 7.31924 0.00233919C6.04056 0.067766 4.76299 0.159078 3.48653 0.276274C2.01585 0.419197 0.604252 1.77315 0.417023 3.24621C0.274101 4.46582 0.16405 5.84978 0.0949707 7.31236C0.870088 6.55154 1.9139 6.04702 3.03632 5.97937Z" fill="white"/>
</svg>
