<svg width="14" height="14" viewBox="0 0 14 14" fill="none" xmlns="http://www.w3.org/2000/svg">
<path d="M7.44141 0.609375C7.30371 0.243164 6.95215 0 6.5625 0C6.17285 0 5.82129 0.243164 5.68359 0.609375L1.69336 11.25H0.9375C0.418945 11.25 0 11.6689 0 12.1875C0 12.7061 0.418945 13.125 0.9375 13.125H3.75C4.26855 13.125 4.6875 12.7061 4.6875 12.1875C4.6875 11.6689 4.26855 11.25 3.75 11.25H3.69727L4.22461 9.84375H8.90039L9.42773 11.25H9.375C8.85645 11.25 8.4375 11.6689 8.4375 12.1875C8.4375 12.7061 8.85645 13.125 9.375 13.125H12.1875C12.7061 13.125 13.125 12.7061 13.125 12.1875C13.125 11.6689 12.7061 11.25 12.1875 11.25H11.4316L7.44141 0.609375ZM8.19727 7.96875H4.92773L6.5625 3.60645L8.19727 7.96875Z" fill="#5A5A5A"/>
</svg>
