<svg width="18" height="14" viewBox="0 0 18 14" fill="none" xmlns="http://www.w3.org/2000/svg">
<path d="M16.4641 7.23209C18.1194 5.57681 18.1194 2.89615 16.4641 1.24087C14.9993 -0.223969 12.6907 -0.414399 11.0061 0.789702L10.9592 0.821929C10.5374 1.12369 10.4407 1.70962 10.7424 2.12857C11.0442 2.54751 11.6301 2.64712 12.0491 2.34537L12.0959 2.31314C13.0364 1.64224 14.3225 1.74771 15.137 2.56509C16.0598 3.48794 16.0598 4.98209 15.137 5.90494L11.8499 9.19791C10.927 10.1208 9.43286 10.1208 8.51001 9.19791C7.69263 8.38052 7.58716 7.09439 8.25806 6.15689L8.29028 6.11001C8.59204 5.68814 8.49243 5.1022 8.07349 4.80337C7.65454 4.50455 7.06567 4.60123 6.76685 5.02017L6.73462 5.06705C5.52759 6.74869 5.71802 9.05728 7.18286 10.5221C8.83814 12.1774 11.5188 12.1774 13.1741 10.5221L16.4641 7.23209ZM1.24146 6.54654C-0.413818 8.20181 -0.413818 10.8825 1.24146 12.5377C2.7063 14.0026 5.01489 14.193 6.69946 12.9889L6.74634 12.9567C7.16821 12.6549 7.26489 12.069 6.96314 11.6501C6.66138 11.2311 6.07544 11.1315 5.65649 11.4333L5.60962 11.4655C4.66919 12.1364 3.38306 12.0309 2.5686 11.2135C1.64575 10.2877 1.64575 8.79361 2.5686 7.87076L5.85571 4.58072C6.77856 3.65787 8.27271 3.65787 9.19556 4.58072C10.0129 5.3981 10.1184 6.68423 9.44751 7.62466L9.41528 7.67154C9.11353 8.09341 9.21313 8.67935 9.63208 8.97818C10.051 9.27701 10.6399 9.18033 10.9387 8.76138L10.9709 8.71451C12.178 7.02994 11.9875 4.72134 10.5227 3.2565C8.86743 1.60123 6.18677 1.60123 4.53149 3.2565L1.24146 6.54654Z" fill="#5A5A5A"/>
</svg>
