<svg width="19" height="14" viewBox="0 0 19 14" fill="none" xmlns="http://www.w3.org/2000/svg">
<path d="M1.58771 5.00684C3.6092 3.06738 6.35138 1.875 9.37482 1.875C12.3983 1.875 15.1404 3.06738 17.1619 5.00684C17.5369 5.36426 18.1287 5.35254 18.4861 4.98047C18.8436 4.6084 18.8319 4.01367 18.4598 3.65625C16.1043 1.3916 12.9022 0 9.37482 0C5.84748 0 2.64533 1.3916 0.28693 3.65332C-0.0851407 4.01367 -0.0968595 4.60547 0.260562 4.98047C0.617984 5.35547 1.21271 5.36719 1.58478 5.00684H1.58771ZM9.37482 6.5625C11.0389 6.5625 12.5565 7.18066 13.7166 8.20312C14.1063 8.5459 14.6981 8.50781 15.0408 8.12109C15.3836 7.73438 15.3455 7.13965 14.9588 6.79688C13.4705 5.48438 11.5135 4.6875 9.37482 4.6875C7.23615 4.6875 5.27912 5.48438 3.79377 6.79688C3.40412 7.13965 3.36896 7.73145 3.71173 8.12109C4.05451 8.51074 4.6463 8.5459 5.03595 8.20312C6.19318 7.18066 7.71076 6.5625 9.37775 6.5625H9.37482ZM11.2498 11.25C11.2498 10.7527 11.0523 10.2758 10.7006 9.92418C10.349 9.57254 9.8721 9.375 9.37482 9.375C8.87754 9.375 8.40063 9.57254 8.049 9.92418C7.69736 10.2758 7.49982 10.7527 7.49982 11.25C7.49982 11.7473 7.69736 12.2242 8.049 12.5758C8.40063 12.9275 8.87754 13.125 9.37482 13.125C9.8721 13.125 10.349 12.9275 10.7006 12.5758C11.0523 12.2242 11.2498 11.7473 11.2498 11.25Z" fill="#5A5A5A"/>
</svg>
