<svg width="18" height="16" viewBox="0 0 18 16" fill="none" xmlns="http://www.w3.org/2000/svg">
<path d="M2.25 1.125C2.25 0.502734 1.74727 0 1.125 0C0.502734 0 0 0.502734 0 1.125V12.9375C0 14.4914 1.25859 15.75 2.8125 15.75H16.875C17.4973 15.75 18 15.2473 18 14.625C18 14.0027 17.4973 13.5 16.875 13.5H2.8125C2.50312 13.5 2.25 13.2469 2.25 12.9375V1.125ZM16.5445 4.16953C16.984 3.73008 16.984 3.01641 16.5445 2.57695C16.1051 2.1375 15.3914 2.1375 14.952 2.57695L11.25 6.28242L9.23203 4.26445C8.79258 3.825 8.07891 3.825 7.63945 4.26445L3.70195 8.20195C3.2625 8.64141 3.2625 9.35508 3.70195 9.79453C4.14141 10.234 4.85508 10.234 5.29453 9.79453L8.4375 6.65508L10.4555 8.67305C10.8949 9.1125 11.6086 9.1125 12.048 8.67305L16.548 4.17305L16.5445 4.16953Z" fill="white"/>
</svg>
