<svg width="23" height="16" viewBox="0 0 23 16" fill="none" xmlns="http://www.w3.org/2000/svg">
<path d="M0 10.6875C0 13.4824 2.26758 15.75 5.0625 15.75H18C20.4855 15.75 22.5 13.7355 22.5 11.25C22.5 9.07383 20.9531 7.25625 18.9 6.84141C19.0441 6.46523 19.125 6.05391 19.125 5.625C19.125 3.76172 17.6133 2.25 15.75 2.25C15.0574 2.25 14.4105 2.46094 13.8762 2.81953C12.9023 1.13203 11.0848 0 9 0C5.89219 0 3.375 2.51719 3.375 5.625C3.375 5.71992 3.37852 5.81484 3.38203 5.90977C1.41328 6.60234 0 8.47969 0 10.6875Z" fill="white"/>
</svg>
