<svg width="18" height="18" viewBox="0 0 18 18" fill="none" xmlns="http://www.w3.org/2000/svg">
<path d="M18 9C18 9.03164 18 9.06328 18 9.09492C17.9859 10.3781 16.8188 11.25 15.5355 11.25H12.0938C11.1621 11.25 10.4062 12.0059 10.4062 12.9375C10.4062 13.057 10.4203 13.173 10.4414 13.2855C10.5152 13.6441 10.6699 13.9887 10.8211 14.3367C11.0355 14.8219 11.2465 15.3035 11.2465 15.8133C11.2465 16.9312 10.4871 17.9473 9.36914 17.993C9.24609 17.9965 9.12305 18 8.99648 18C4.02891 18 0 13.9711 0 9C0 4.02891 4.02891 0 9 0C13.9711 0 18 4.02891 18 9ZM4.5 10.125C4.5 9.82663 4.38147 9.54048 4.1705 9.3295C3.95952 9.11853 3.67337 9 3.375 9C3.07663 9 2.79048 9.11853 2.5795 9.3295C2.36853 9.54048 2.25 9.82663 2.25 10.125C2.25 10.4234 2.36853 10.7095 2.5795 10.9205C2.79048 11.1315 3.07663 11.25 3.375 11.25C3.67337 11.25 3.95952 11.1315 4.1705 10.9205C4.38147 10.7095 4.5 10.4234 4.5 10.125ZM4.5 6.75C4.79837 6.75 5.08452 6.63147 5.2955 6.4205C5.50647 6.20952 5.625 5.92337 5.625 5.625C5.625 5.32663 5.50647 5.04048 5.2955 4.8295C5.08452 4.61853 4.79837 4.5 4.5 4.5C4.20163 4.5 3.91548 4.61853 3.7045 4.8295C3.49353 5.04048 3.375 5.32663 3.375 5.625C3.375 5.92337 3.49353 6.20952 3.7045 6.4205C3.91548 6.63147 4.20163 6.75 4.5 6.75ZM10.125 3.375C10.125 3.07663 10.0065 2.79048 9.7955 2.5795C9.58452 2.36853 9.29837 2.25 9 2.25C8.70163 2.25 8.41548 2.36853 8.2045 2.5795C7.99353 2.79048 7.875 3.07663 7.875 3.375C7.875 3.67337 7.99353 3.95952 8.2045 4.1705C8.41548 4.38147 8.70163 4.5 9 4.5C9.29837 4.5 9.58452 4.38147 9.7955 4.1705C10.0065 3.95952 10.125 3.67337 10.125 3.375ZM13.5 6.75C13.7984 6.75 14.0845 6.63147 14.2955 6.4205C14.5065 6.20952 14.625 5.92337 14.625 5.625C14.625 5.32663 14.5065 5.04048 14.2955 4.8295C14.0845 4.61853 13.7984 4.5 13.5 4.5C13.2016 4.5 12.9155 4.61853 12.7045 4.8295C12.4935 5.04048 12.375 5.32663 12.375 5.625C12.375 5.92337 12.4935 6.20952 12.7045 6.4205C12.9155 6.63147 13.2016 6.75 13.5 6.75Z" fill="white"/>
</svg>
