<svg width="17" height="18" viewBox="0 0 17 18" fill="none" xmlns="http://www.w3.org/2000/svg">
<path d="M8.43752 0C8.59923 0 8.76095 0.0351563 8.90861 0.101953L15.5285 2.91094C16.302 3.23789 16.8785 4.00078 16.875 4.92188C16.8574 8.40938 15.4231 14.7902 9.36564 17.6906C8.77853 17.9719 8.0965 17.9719 7.50939 17.6906C1.45197 14.7902 0.0175941 8.40938 1.59908e-05 4.92188C-0.00349963 4.00078 0.573063 3.23789 1.3465 2.91094L7.96994 0.101953C8.11408 0.0351563 8.2758 0 8.43752 0ZM8.43752 2.34844V15.6375C13.2891 13.2891 14.5934 8.08945 14.625 4.97109L8.43752 2.34844Z" fill="white"/>
</svg>
