<svg width="23" height="12" viewBox="0 0 23 12" fill="none" xmlns="http://www.w3.org/2000/svg">
<path d="M0 5.10117C0 2.28516 2.28516 0 5.10117 0C6.45469 0 7.75195 0.537891 8.7082 1.49414L11.25 4.03242L13.7883 1.49414C14.748 0.537891 16.0453 0 17.3988 0C20.2148 0 22.5 2.28516 22.5 5.10117V6.14531C22.5 8.96484 20.2148 11.25 17.3988 11.25C16.0453 11.25 14.748 10.7121 13.7918 9.75586L11.25 7.21758L8.71172 9.75586C7.75195 10.7121 6.45469 11.25 5.10117 11.25C2.28516 11.25 0 8.96484 0 6.14883V5.10117ZM9.65742 5.625L7.11914 3.08672C6.58477 2.55234 5.85703 2.25 5.10117 2.25C3.52617 2.25 2.25 3.52617 2.25 5.10117V6.14531C2.25 7.72031 3.52617 8.99648 5.10117 8.99648C5.85703 8.99648 6.58477 8.69766 7.11914 8.15977L9.65742 5.625ZM12.8391 5.625L15.3773 8.16328C15.9117 8.69766 16.6395 9 17.3953 9C18.9703 9 20.2465 7.72383 20.2465 6.14883V5.10117C20.2465 3.52617 18.9703 2.25 17.3953 2.25C16.6395 2.25 15.9117 2.54883 15.3773 3.08672L12.8426 5.625H12.8391Z" fill="white"/>
</svg>
