<svg width="20" height="20" viewBox="0 0 20 20" fill="none" xmlns="http://www.w3.org/2000/svg">
<path d="M6.58825 15.9424C6.47862 15.6308 6.13777 15.4667 5.82616 15.5756C5.51454 15.6853 5.35043 16.0261 5.46006 16.3377L5.84077 17.4234C5.03882 17.0221 4.30463 16.4998 3.65881 15.854C2.06818 14.2641 1.19247 12.1492 1.19247 9.89881C1.19247 7.64841 2.06818 5.53355 3.65881 3.94292C4.74647 2.85526 6.10389 2.08918 7.58356 1.72707C7.90447 1.64867 8.10048 1.32576 8.02207 1.00418C7.94434 0.683926 7.62209 0.486593 7.29918 0.565659C5.6069 0.979594 4.05547 1.85464 2.813 3.09711C-0.937667 6.84778 -0.937667 12.9505 2.813 16.7012C3.49669 17.3849 4.26476 17.9503 5.10326 18.3948L4.25546 18.624C3.93654 18.7104 3.74784 19.0386 3.83422 19.3575C3.90597 19.6233 4.14782 19.7994 4.41094 19.7994C4.46276 19.7994 4.51525 19.7921 4.56708 19.7788L7.02012 19.1157C7.18091 19.0725 7.31579 18.9635 7.39353 18.8174C7.4706 18.6698 7.48389 18.4978 7.42874 18.3403L6.58825 15.9424Z" fill="#7ACBFF"/>
<path d="M16.4177 3.09714C15.7341 2.41345 14.966 1.84803 14.1275 1.40353L14.9753 1.1743C15.2942 1.08793 15.4829 0.759702 15.3965 0.440779C15.3108 0.12252 14.9826 -0.0628536 14.663 0.0195348L12.21 0.682629C12.0492 0.725816 11.9143 0.834782 11.8365 0.980955C11.7601 1.12846 11.7469 1.30121 11.802 1.45801L12.6425 3.85525C12.7289 4.10108 12.9601 4.25589 13.2066 4.25589C13.2724 4.25589 13.3388 4.2446 13.4046 4.22201C13.7162 4.11238 13.8803 3.77153 13.7707 3.45992L13.39 2.37425C14.1926 2.77556 14.9261 3.2978 15.5719 3.94362C17.1626 5.53424 18.0383 7.6491 18.0383 9.8995C18.0383 12.1499 17.1626 14.2648 15.5719 15.8554C14.4843 16.943 13.1269 17.7091 11.6472 18.0712C11.3263 18.1496 11.1303 18.4725 11.2087 18.7941C11.2751 19.0672 11.5196 19.2506 11.7894 19.2506C11.8359 19.2506 11.8844 19.2446 11.9316 19.2333C13.6238 18.8194 15.1753 17.9443 16.4177 16.7019C20.1684 12.9505 20.1684 6.84714 16.4177 3.09714Z" fill="#7ACBFF"/>
<path d="M15.465 9.89895C15.465 6.67384 12.8412 4.04871 9.61545 4.04871C6.38967 4.04871 3.76587 6.67384 3.76587 9.89895C3.76587 13.1241 6.38967 15.7492 9.61545 15.7492C12.8412 15.7492 15.465 13.1241 15.465 9.89895ZM11.715 11.5188C11.5974 11.671 11.42 11.752 11.2413 11.752C11.1137 11.752 10.9855 11.7108 10.8765 11.6271L9.25001 10.3727C9.10318 10.2591 9.01747 10.0843 9.01747 9.89895V7.42796C9.01747 7.09774 9.28523 6.82998 9.61545 6.82998C9.94567 6.82998 10.2134 7.09774 10.2134 7.42796V9.60461L11.6074 10.679C11.8678 10.8816 11.9163 11.257 11.715 11.5188Z" fill="#7ACBFF"/>
</svg>
