<svg width="10" height="8" viewBox="0 0 10 8" fill="none" xmlns="http://www.w3.org/2000/svg">
<path d="M4.57435 0C3.29088 0 2.26315 0.584551 1.51499 1.28029C0.771592 1.96968 0.274406 2.79568 0.0393143 3.36276C-0.0131048 3.48825 -0.0131048 3.62803 0.0393143 3.75352C0.274406 4.3206 0.771592 5.14659 1.51499 5.83598C2.26315 6.53173 3.29088 7.11628 4.57435 7.11628C5.85783 7.11628 6.88556 6.53173 7.63372 5.83598C8.37712 5.14501 8.8743 4.3206 9.11098 3.75352C9.1634 3.62803 9.1634 3.48825 9.11098 3.36276C8.8743 2.79568 8.37712 1.96968 7.63372 1.28029C6.88556 0.584551 5.85783 0 4.57435 0ZM2.28698 3.55814C2.28698 2.95149 2.52797 2.36969 2.95694 1.94072C3.3859 1.51175 3.9677 1.27076 4.57435 1.27076C5.181 1.27076 5.76281 1.51175 6.19177 1.94072C6.62074 2.36969 6.86173 2.95149 6.86173 3.55814C6.86173 4.16479 6.62074 4.74659 6.19177 5.17556C5.76281 5.60452 5.181 5.84551 4.57435 5.84551C3.9677 5.84551 3.3859 5.60452 2.95694 5.17556C2.52797 4.74659 2.28698 4.16479 2.28698 3.55814ZM4.57435 2.54153C4.57435 3.10225 4.11847 3.55814 3.55774 3.55814C3.44496 3.55814 3.33695 3.53908 3.23529 3.50572C3.14792 3.47713 3.04626 3.53114 3.04944 3.62327C3.0542 3.73287 3.07009 3.84247 3.10027 3.95208C3.31789 4.76537 4.155 5.24826 4.96829 5.03064C5.78158 4.81302 6.26447 3.9759 6.04685 3.16261C5.87053 2.50341 5.28757 2.06023 4.63948 2.03322C4.54735 2.03005 4.49334 2.13012 4.52194 2.21907C4.55529 2.32073 4.57435 2.42875 4.57435 2.54153Z" fill="#B0B0B0"/>
</svg>
