<svg width="16" height="18" viewBox="0 0 16 18" fill="none" xmlns="http://www.w3.org/2000/svg">
<g clip-path="url(#clip0_5_3833)">
<path d="M12.2836 1.56792C12.491 1.08628 12.3363 0.52378 11.9109 0.214405C11.4855 -0.09497 10.9055 -0.066845 10.5082 0.277686L1.5082 8.15269C1.15663 8.46206 1.03007 8.95776 1.1953 9.3937C1.36054 9.82964 1.78241 10.125 2.24999 10.125H6.16991L3.4664 16.432C3.25898 16.9136 3.41366 17.4761 3.83905 17.7855C4.26445 18.0949 4.84452 18.0667 5.24179 17.7222L14.2418 9.84722C14.5934 9.53784 14.7199 9.04214 14.5547 8.6062C14.3894 8.17026 13.9711 7.87847 13.5 7.87847H9.58007L12.2836 1.56792Z" fill="#5A5A5A"/>
</g>
<defs>
<clipPath id="clip0_5_3833">
<path d="M0 0H15.75V18H0V0Z" fill="white"/>
</clipPath>
</defs>
</svg>
