<svg width="18" height="16" viewBox="0 0 18 16" fill="none" xmlns="http://www.w3.org/2000/svg">
<path d="M0 2.25C0 1.00898 1.00898 0 2.25 0H15.75C16.991 0 18 1.00898 18 2.25V13.5C18 14.741 16.991 15.75 15.75 15.75H2.25C1.00898 15.75 0 14.741 0 13.5V2.25ZM11.3836 5.99414C11.2254 5.76211 10.9652 5.625 10.6875 5.625C10.4098 5.625 10.1461 5.76211 9.99141 5.99414L6.93281 10.4801L6.00117 9.31641C5.83945 9.11602 5.59688 9 5.34375 9C5.09062 9 4.84453 9.11602 4.68633 9.31641L2.43633 12.1289C2.23242 12.382 2.19375 12.7301 2.33438 13.0219C2.475 13.3137 2.77031 13.5 3.09375 13.5H6.46875H7.59375H14.9062C15.2191 13.5 15.5074 13.3277 15.6516 13.05C15.7957 12.7723 15.7781 12.4383 15.6023 12.1816L11.3836 5.99414ZM3.9375 5.625C4.38505 5.625 4.81428 5.44721 5.13074 5.13074C5.44721 4.81428 5.625 4.38505 5.625 3.9375C5.625 3.48995 5.44721 3.06072 5.13074 2.74426C4.81428 2.42779 4.38505 2.25 3.9375 2.25C3.48995 2.25 3.06072 2.42779 2.74426 2.74426C2.42779 3.06072 2.25 3.48995 2.25 3.9375C2.25 4.38505 2.42779 4.81428 2.74426 5.13074C3.06072 5.44721 3.48995 5.625 3.9375 5.625Z" fill="#5A5A5A"/>
</svg>
