<svg width="6" height="14" viewBox="0 0 6 14" fill="none" xmlns="http://www.w3.org/2000/svg">
<path d="M1.3125 1.3125C1.3125 0.964403 1.45078 0.630564 1.69692 0.384422C1.94306 0.138281 2.2769 0 2.625 0C2.9731 0 3.30694 0.138281 3.55308 0.384422C3.79922 0.630564 3.9375 0.964403 3.9375 1.3125C3.9375 1.6606 3.79922 1.99444 3.55308 2.24058C3.30694 2.48672 2.9731 2.625 2.625 2.625C2.2769 2.625 1.94306 2.48672 1.69692 2.24058C1.45078 1.99444 1.3125 1.6606 1.3125 1.3125ZM0 5.25C0 4.76602 0.391016 4.375 0.875 4.375H2.625C3.10898 4.375 3.5 4.76602 3.5 5.25V11.375H4.375C4.85898 11.375 5.25 11.766 5.25 12.25C5.25 12.734 4.85898 13.125 4.375 13.125H0.875C0.391016 13.125 0 12.734 0 12.25C0 11.766 0.391016 11.375 0.875 11.375H1.75V6.125H0.875C0.391016 6.125 0 5.73398 0 5.25Z" fill="white"/>
</svg>
