<svg width="17" height="13" viewBox="0 0 17 13" fill="none" xmlns="http://www.w3.org/2000/svg">
<path d="M15.3138 6.7268C16.8534 5.18718 16.8534 2.6938 15.3138 1.15418C13.9513 -0.208321 11.804 -0.385446 10.2371 0.734528L10.1935 0.764504C9.80114 1.04518 9.71122 1.59018 9.99189 1.97985C10.2726 2.36953 10.8176 2.46218 11.2072 2.1815L11.2508 2.15153C12.1256 1.5275 13.3218 1.6256 14.0794 2.38588C14.9378 3.24425 14.9378 4.634 14.0794 5.49238L11.0219 8.55528C10.1636 9.41365 8.77382 9.41365 7.91544 8.55528C7.15517 7.795 7.05707 6.59873 7.68109 5.72673L7.71107 5.68313C7.99174 5.29073 7.89909 4.74573 7.50942 4.46778C7.11974 4.18983 6.57202 4.27975 6.29407 4.66943L6.26409 4.71303C5.14139 6.27718 5.31852 8.42448 6.68102 9.78698C8.22064 11.3266 10.714 11.3266 12.2536 9.78698L15.3138 6.7268ZM1.15472 6.08915C-0.384906 7.62878 -0.384906 10.1222 1.15472 11.6618C2.51722 13.0243 4.66452 13.2014 6.23139 12.0814L6.27499 12.0515C6.66739 11.7708 6.75732 11.2258 6.47664 10.8361C6.19597 10.4464 5.65097 10.3538 5.26129 10.6345L5.21769 10.6644C4.34297 11.2885 3.14669 11.1904 2.38914 10.4301C1.53077 9.56898 1.53077 8.17923 2.38914 7.32085L5.44659 4.26068C6.30497 3.4023 7.69472 3.4023 8.55309 4.26068C9.31337 5.02095 9.41147 6.21723 8.78744 7.09195L8.75747 7.13555C8.47679 7.52795 8.56944 8.07295 8.95912 8.3509C9.34879 8.62885 9.89652 8.53893 10.1745 8.14925L10.2044 8.10565C11.3271 6.53878 11.15 4.39148 9.78752 3.02898C8.24789 1.48935 5.75452 1.48935 4.21489 3.02898L1.15472 6.08915Z" fill="#B0B0B0"/>
</svg>
