<svg width="7" height="2" viewBox="0 0 7 2" fill="none" xmlns="http://www.w3.org/2000/svg">
<path d="M0 0.889535C0 0.653616 0.0937186 0.427359 0.260539 0.260539C0.427359 0.0937186 0.653616 0 0.889535 0C1.12545 0 1.35171 0.0937186 1.51853 0.260539C1.68535 0.427359 1.77907 0.653616 1.77907 0.889535C1.77907 1.12545 1.68535 1.35171 1.51853 1.51853C1.35171 1.68535 1.12545 1.77907 0.889535 1.77907C0.653616 1.77907 0.427359 1.68535 0.260539 1.51853C0.0937186 1.35171 0 1.12545 0 0.889535ZM2.54153 0.889535C2.54153 0.653616 2.63525 0.427359 2.80207 0.260539C2.96889 0.0937186 3.19514 0 3.43106 0C3.66698 0 3.89324 0.0937186 4.06006 0.260539C4.22688 0.427359 4.3206 0.653616 4.3206 0.889535C4.3206 1.12545 4.22688 1.35171 4.06006 1.51853C3.89324 1.68535 3.66698 1.77907 3.43106 1.77907C3.19514 1.77907 2.96889 1.68535 2.80207 1.51853C2.63525 1.35171 2.54153 1.12545 2.54153 0.889535ZM5.97259 0C6.20851 0 6.43477 0.0937186 6.60159 0.260539C6.76841 0.427359 6.86213 0.653616 6.86213 0.889535C6.86213 1.12545 6.76841 1.35171 6.60159 1.51853C6.43477 1.68535 6.20851 1.77907 5.97259 1.77907C5.73667 1.77907 5.51042 1.68535 5.3436 1.51853C5.17677 1.35171 5.08306 1.12545 5.08306 0.889535C5.08306 0.653616 5.17677 0.427359 5.3436 0.260539C5.51042 0.0937186 5.73667 0 5.97259 0Z" fill="#5A5A5A"/>
</svg>
