<svg width="42" height="42" viewBox="0 0 42 42" fill="none" xmlns="http://www.w3.org/2000/svg">
<path d="M0 4.5C0 2.01562 2.01562 0 4.5 0H13.5C15.9844 0 18 2.01562 18 4.5V13.5C18 15.9844 15.9844 18 13.5 18H4.5C2.01562 18 0 15.9844 0 13.5V4.5ZM6 6V12H12V6H6ZM0 28.5C0 26.0156 2.01562 24 4.5 24H13.5C15.9844 24 18 26.0156 18 28.5V37.5C18 39.9844 15.9844 42 13.5 42H4.5C2.01562 42 0 39.9844 0 37.5V28.5ZM6 30V36H12V30H6ZM28.5 0H37.5C39.9844 0 42 2.01562 42 4.5V13.5C42 15.9844 39.9844 18 37.5 18H28.5C26.0156 18 24 15.9844 24 13.5V4.5C24 2.01562 26.0156 0 28.5 0ZM36 6H30V12H36V6ZM24 25.5C24 24.675 24.675 24 25.5 24H31.5C32.325 24 33 24.675 33 25.5C33 26.325 33.675 27 34.5 27H37.5C38.325 27 39 26.325 39 25.5C39 24.675 39.675 24 40.5 24C41.325 24 42 24.675 42 25.5V34.5C42 35.325 41.325 36 40.5 36H34.5C33.675 36 33 35.325 33 34.5C33 33.675 32.325 33 31.5 33C30.675 33 30 33.675 30 34.5V40.5C30 41.325 29.325 42 28.5 42H25.5C24.675 42 24 41.325 24 40.5V25.5ZM34.5 42C34.1022 42 33.7206 41.842 33.4393 41.5607C33.158 41.2794 33 40.8978 33 40.5C33 40.1022 33.158 39.7206 33.4393 39.4393C33.7206 39.158 34.1022 39 34.5 39C34.8978 39 35.2794 39.158 35.5607 39.4393C35.842 39.7206 36 40.1022 36 40.5C36 40.8978 35.842 41.2794 35.5607 41.5607C35.2794 41.842 34.8978 42 34.5 42ZM40.5 42C40.1022 42 39.7206 41.842 39.4393 41.5607C39.158 41.2794 39 40.8978 39 40.5C39 40.1022 39.158 39.7206 39.4393 39.4393C39.7206 39.158 40.1022 39 40.5 39C40.8978 39 41.2794 39.158 41.5607 39.4393C41.842 39.7206 42 40.1022 42 40.5C42 40.8978 41.842 41.2794 41.5607 41.5607C41.2794 41.842 40.8978 42 40.5 42Z" fill="white"/>
</svg>
