<svg width="204" height="202" viewBox="0 0 204 202" fill="none" xmlns="http://www.w3.org/2000/svg">
<path d="M63.1254 7.80765C63.1254 3.49561 59.6298 0 55.3177 0H7.80765C3.49561 0 0 3.49561 0 7.80766V55.3177C0 59.6298 3.49561 63.1254 7.80766 63.1254H55.3177C59.6298 63.1254 63.1254 59.6298 63.1254 55.3177V7.80765ZM50.5016 42.6923C50.5016 47.0044 47.006 50.5 42.6939 50.5H20.4347C16.1226 50.5 12.627 47.0043 12.627 42.6923V20.433C12.627 16.121 16.1226 12.6254 20.4347 12.6254H42.694C47.006 12.6254 50.5016 16.121 50.5016 20.433V42.6923Z" fill="#7ACBFF"/>
<path d="M23.8491 32.2645C23.8491 36.138 26.9892 39.2782 30.8628 39.2782C34.7363 39.2782 37.8764 36.138 37.8764 32.2645C37.8764 28.391 34.7363 25.2509 30.8628 25.2509C26.9892 25.2509 23.8491 28.391 23.8491 32.2645Z" fill="#7ACBFF"/>
<path d="M202 7.80765C202 3.49561 198.504 0 194.192 0H146.682C142.37 0 138.875 3.49561 138.875 7.80766V55.3177C138.875 59.6298 142.37 63.1254 146.682 63.1254H194.192C198.504 63.1254 202 59.6298 202 55.3177V7.80765ZM189.376 42.6923C189.376 47.0044 185.881 50.5 181.569 50.5H159.309C154.997 50.5 151.502 47.0043 151.502 42.6923V20.433C151.502 16.121 154.997 12.6254 159.309 12.6254H181.569C185.881 12.6254 189.376 16.121 189.376 20.433V42.6923Z" fill="#7ACBFF"/>
<path d="M162.723 32.2645C162.723 36.138 165.864 39.2782 169.737 39.2782C173.611 39.2782 176.751 36.138 176.751 32.2645C176.751 28.391 173.611 25.2509 169.737 25.2509C165.864 25.2509 162.723 28.391 162.723 32.2645Z" fill="#7ACBFF"/>
<path d="M0.00170898 194.192C0.00170898 198.504 3.49732 202 7.80936 202H55.3194C59.6315 202 63.1271 198.504 63.1271 194.192V146.682C63.1271 142.37 59.6315 138.875 55.3194 138.875H7.80936C3.49731 138.875 0.00170898 142.37 0.00170898 146.682V194.192ZM12.6271 159.308C12.6271 154.996 16.1227 151.5 20.4347 151.5H42.694C47.0061 151.5 50.5017 154.996 50.5017 159.308V181.567C50.5017 185.879 47.0061 189.375 42.694 189.375H20.4347C16.1227 189.375 12.6271 185.879 12.6271 181.567V159.308Z" fill="#7ACBFF"/>
<path d="M23.8491 171.139C23.8491 175.012 26.9892 178.153 30.8628 178.153C34.7363 178.153 37.8764 175.012 37.8764 171.139C37.8764 167.265 34.7363 164.125 30.8628 164.125C26.9892 164.125 23.8491 167.265 23.8491 171.139Z" fill="#7ACBFF"/>
<path d="M101.002 57.5144C101.002 54.4156 103.514 51.9035 106.613 51.9035H107.314C110.8 51.9035 113.626 49.0776 113.626 45.5916V44.1865C113.626 40.7005 110.8 37.8746 107.314 37.8746C103.828 37.8746 101.002 35.0486 101.002 31.5627V18.9381C101.002 15.4517 98.1755 12.6254 94.6891 12.6254C91.2027 12.6254 88.3764 9.79909 88.3764 6.31269C88.3764 2.82629 85.5501 0 82.0637 0C78.5773 0 75.751 2.8263 75.751 6.31271V18.9381C75.751 22.4245 78.5777 25.2508 82.0641 25.2508C85.5501 25.2508 88.3764 28.0767 88.3764 31.5627C88.3764 35.0486 85.5501 37.8746 82.0641 37.8746C78.5777 37.8746 75.751 40.7009 75.751 44.1873V45.5908C75.751 49.0772 78.5773 51.9035 82.0637 51.9035H82.7655C85.8643 51.9035 88.3764 54.4156 88.3764 57.5144C88.3764 60.6133 90.8885 63.1254 93.9873 63.1254H95.3908C98.4897 63.1254 101.002 60.6133 101.002 57.5144Z" fill="#7ACBFF"/>
<path d="M82.0636 88.3744C85.55 88.3744 88.3764 85.5481 88.3764 82.0617V69.438C88.3764 65.9515 85.5496 63.1252 82.0632 63.1252C78.5773 63.1252 75.7509 65.9512 75.7509 69.4371C75.7509 72.9231 72.925 75.749 69.4391 75.749H51.295C46.9829 75.749 43.4873 79.2446 43.4873 83.5566V93.1921C43.4873 97.5042 39.9917 101 35.6797 101H31.5637C28.0773 101 25.251 103.826 25.251 107.312C25.251 110.799 28.0773 113.625 31.5637 113.625H55.4109C58.8974 113.625 61.7237 110.799 61.7237 107.312C61.7237 103.826 64.55 101 68.0364 101H69.4382C72.9246 101 75.7509 98.1735 75.7509 94.6871C75.7509 91.2007 78.5772 88.3744 82.0636 88.3744Z" fill="#7ACBFF"/>
<path d="M31.5652 75.749H18.9398C15.4534 75.749 12.6271 78.5753 12.6271 82.0617C12.6271 85.5482 15.4534 88.3744 18.9398 88.3744H31.5652C35.0516 88.3744 37.8779 85.5482 37.8779 82.0617C37.8779 78.5753 35.0516 75.749 31.5652 75.749Z" fill="#7ACBFF"/>
<path d="M17.5371 126.249C21.023 126.249 23.849 123.423 23.849 119.937V119.236C23.849 116.137 21.3369 113.625 18.238 113.625C15.1392 113.625 12.6271 111.113 12.6271 108.014V94.6872C12.6271 91.2008 9.8008 88.3745 6.3144 88.3745C2.828 88.3745 0.00170898 91.2008 0.00170898 94.6872V113.625V118.441C0.00170898 122.753 3.49731 126.249 7.80936 126.249H12.6271H17.5371Z" fill="#7ACBFF"/>
<path d="M75.751 145.187C75.751 148.674 78.5773 151.5 82.0637 151.5C85.5501 151.5 88.3764 148.674 88.3764 145.187C88.3764 141.701 85.5501 138.875 82.0637 138.875C78.5773 138.875 75.751 141.701 75.751 145.187Z" fill="#7ACBFF"/>
<path d="M170.438 101C166.952 101 164.125 98.1736 164.125 94.6872C164.125 91.2008 161.299 88.3745 157.813 88.3745C154.326 88.3745 151.5 91.2008 151.5 94.6872V101V105.818C151.5 110.13 148.004 113.625 143.692 113.625H132.563C129.077 113.625 126.251 116.451 126.251 119.937C126.251 123.423 129.077 126.249 132.563 126.249H151.5H157.813C161.299 126.249 164.125 123.423 164.125 119.937C164.125 116.451 166.952 113.625 170.438 113.625C173.924 113.625 176.751 110.799 176.751 107.313C176.751 103.826 173.924 101 170.438 101Z" fill="#7ACBFF"/>
<path d="M75.751 107.313C75.751 110.799 72.9243 113.625 69.4379 113.625C65.9519 113.625 63.1256 116.451 63.1256 119.937C63.1256 123.423 65.9515 126.249 69.4375 126.249H101.703C105.189 126.249 108.015 123.423 108.015 119.937V117.132C108.015 115.195 106.445 113.625 104.508 113.625C102.572 113.625 101.002 112.055 101.002 110.119V107.313C101.002 103.826 98.1755 101 94.6891 101H82.0637C78.5773 101 75.751 103.826 75.751 107.313Z" fill="#7ACBFF"/>
<path d="M196.39 75.749C192.517 75.749 189.377 78.8891 189.377 82.7627V107.313C189.377 110.799 186.55 113.625 183.063 113.625C179.577 113.625 176.751 116.451 176.751 119.937C176.751 123.423 179.577 126.249 183.063 126.249H189.377H195.596C199.908 126.249 203.404 122.753 203.404 118.441V113.625V82.7627C203.404 78.8891 200.264 75.749 196.39 75.749Z" fill="#7ACBFF"/>
<path d="M113.626 145.188C113.626 148.674 110.8 151.5 107.314 151.5C103.828 151.5 101.002 154.327 101.002 157.813C101.002 161.298 103.828 164.125 107.314 164.125C110.8 164.125 113.626 166.951 113.626 170.437V176.749V183.062C113.626 186.548 110.8 189.374 107.314 189.374C103.828 189.374 101.002 186.548 101.002 183.062V176.749V171.933C101.002 167.621 97.5062 164.125 93.1941 164.125H82.0629C78.5769 164.125 75.751 166.951 75.751 170.437C75.751 173.923 78.5773 176.749 82.0633 176.749C85.5497 176.749 88.3764 179.575 88.3764 183.062C88.3764 186.548 85.5501 189.374 82.0637 189.374C78.5773 189.374 75.751 192.201 75.751 195.687C75.751 199.173 78.5773 202 82.0637 202H170.438C173.925 202 176.751 199.173 176.751 195.687C176.751 192.201 173.925 189.374 170.438 189.374C166.952 189.374 164.126 186.548 164.126 183.062C164.126 179.575 166.952 176.749 170.438 176.749C173.925 176.749 176.751 179.575 176.751 183.062C176.751 186.548 179.577 189.374 183.064 189.374C186.55 189.374 189.376 192.201 189.376 195.687C189.376 199.173 192.203 202 195.689 202H196.39C200.264 202 203.404 198.86 203.404 194.986V176.749V164.125V157.11C203.404 153.236 200.264 150.096 196.39 150.096H194.987C191.888 150.096 189.376 147.584 189.376 144.485C189.376 141.386 186.864 138.874 183.765 138.874H183.064C179.577 138.874 176.751 141.701 176.751 145.187C176.751 148.674 179.577 151.5 183.064 151.5C186.55 151.5 189.376 154.326 189.376 157.813C189.376 161.299 186.55 164.125 183.064 164.125H171.933C167.621 164.125 164.126 160.63 164.126 156.318V145.888C164.126 142.015 160.985 138.874 157.112 138.874C153.238 138.874 150.098 142.015 150.098 145.888V181.567C150.098 185.879 146.603 189.374 142.291 189.374H132.564C129.077 189.374 126.251 186.548 126.251 183.062C126.251 179.575 129.078 176.749 132.564 176.749C136.05 176.749 138.876 173.923 138.876 170.437C138.876 166.951 136.05 164.125 132.564 164.125C129.078 164.125 126.251 161.299 126.251 157.813C126.251 154.326 129.077 151.5 132.564 151.5C136.05 151.5 138.876 148.674 138.876 145.187C138.876 141.701 136.05 138.874 132.564 138.874C129.077 138.874 126.251 136.048 126.251 132.562C126.251 129.075 123.425 126.249 119.938 126.249C116.452 126.249 113.626 129.075 113.626 132.562V145.188Z" fill="#7ACBFF"/>
<path d="M127.654 75.7508C127.654 71.8768 124.514 68.7363 120.64 68.7363C116.766 68.7363 113.625 71.8768 113.625 75.7508V82.0627C113.625 85.5486 110.799 88.3746 107.313 88.3746C103.827 88.3746 101.001 91.2013 101.001 94.6873C101.001 98.1732 103.827 101 107.313 101H110.119C112.055 101 113.625 102.57 113.625 104.506C113.625 106.443 115.195 108.013 117.132 108.013H124.148C126.084 108.013 127.654 106.443 127.654 104.506C127.654 102.57 129.224 101 131.161 101H133.265C136.364 101 138.876 98.4878 138.876 95.389V93.9855C138.876 90.8867 136.364 88.3746 133.265 88.3746C130.166 88.3746 127.654 85.8625 127.654 82.7636V75.7508Z" fill="#7ACBFF"/>
<path d="M164.125 82.0617C164.125 85.5482 166.952 88.3744 170.438 88.3744C173.924 88.3744 176.751 85.5482 176.751 82.0617C176.751 78.5753 173.924 75.749 170.438 75.749C166.952 75.749 164.125 78.5753 164.125 82.0617Z" fill="#7ACBFF"/>
<path d="M138.876 82.0617C138.876 85.5482 141.702 88.3744 145.189 88.3744C148.675 88.3744 151.502 85.5482 151.502 82.0617C151.502 78.5753 148.675 75.749 145.189 75.749C141.702 75.749 138.876 78.5753 138.876 82.0617Z" fill="#7ACBFF"/>
<path d="M126.251 31.5617V18.938C126.251 15.4515 123.425 12.6252 119.938 12.6252C116.452 12.6252 113.626 15.4515 113.626 18.938V31.5617C113.626 35.0481 116.452 37.8744 119.938 37.8744C123.425 37.8744 126.251 35.0481 126.251 31.5617Z" fill="#7ACBFF"/>
<path d="M101.001 6.31269C101.001 9.79909 103.828 12.6254 107.314 12.6254C110.801 12.6254 113.627 9.79909 113.627 6.31269C113.627 2.82629 110.801 0 107.314 0C103.828 0 101.001 2.82629 101.001 6.31269Z" fill="#7ACBFF"/>
</svg>
