<svg width="14" height="13" viewBox="0 0 14 13" fill="none" xmlns="http://www.w3.org/2000/svg">
<path d="M8.39453 0.0771134C8.08008 0.216566 7.875 0.53102 7.875 0.875551V2.62555H4.8125C2.15469 2.62555 0 4.78024 0 7.43805C0 10.5361 2.22852 11.9197 2.73984 12.1986C2.8082 12.2369 2.88477 12.2506 2.96133 12.2506C3.25938 12.2506 3.5 12.0072 3.5 11.7119C3.5 11.5068 3.38242 11.3181 3.23203 11.1787C2.975 10.9353 2.625 10.4568 2.625 9.62555C2.625 8.17633 3.80078 7.00055 5.25 7.00055H7.875V8.75055C7.875 9.09508 8.07734 9.40954 8.39453 9.54899C8.71172 9.68844 9.07812 9.63102 9.33516 9.40133L13.7102 5.46383C13.8934 5.29704 14 5.06188 14 4.81305C14 4.56422 13.8961 4.32907 13.7102 4.16227L9.33516 0.22477C9.07812 -0.00765223 8.70898 -0.0650741 8.39453 0.0771134Z" fill="white"/>
</svg>
