<svg width="18" height="16" viewBox="0 0 18 16" fill="none" xmlns="http://www.w3.org/2000/svg">
<path d="M5.2418 1.15313L4.87617 2.25H2.25C1.00898 2.25 0 3.25898 0 4.5V13.5C0 14.741 1.00898 15.75 2.25 15.75H15.75C16.991 15.75 18 14.741 18 13.5V4.5C18 3.25898 16.991 2.25 15.75 2.25H13.1238L12.7582 1.15313C12.5297 0.464063 11.8863 0 11.1586 0H6.84141C6.11367 0 5.47031 0.464063 5.2418 1.15313ZM13.5 7.875C13.5 8.18437 13.2469 8.4375 12.9375 8.4375H10.241C10.023 8.4375 9.84375 8.2582 9.84375 8.04023C9.84375 7.93477 9.88594 7.83281 9.95977 7.75898L10.793 6.92578C10.3148 6.45469 9.67148 6.1875 9 6.1875C8.325 6.1875 7.67461 6.45469 7.19648 6.93633L6.50391 7.62891C6.17344 7.95937 5.63906 7.95937 5.31211 7.62891C4.98516 7.29844 4.98164 6.76406 5.31211 6.43711L6.00469 5.74453C6.79922 4.94648 7.875 4.5 9 4.5C10.118 4.5 11.1938 4.94297 11.9883 5.73047L12.8215 4.89727C12.8953 4.82344 12.9973 4.78125 13.1027 4.78125C13.3207 4.78125 13.5 4.96055 13.5 5.17852V7.875ZM4.5 10.125C4.5 9.81563 4.75313 9.5625 5.0625 9.5625H7.75898C7.97695 9.5625 8.15625 9.7418 8.15625 9.95977C8.15625 10.0652 8.11406 10.1672 8.04023 10.241L7.20703 11.0742C7.68516 11.5453 8.32852 11.8125 9 11.8125C9.675 11.8125 10.3254 11.5453 10.8035 11.0637L11.4961 10.3711C11.8266 10.0406 12.3609 10.0406 12.6879 10.3711C13.0148 10.7016 13.0184 11.2359 12.6879 11.5629L11.9953 12.2555C11.2008 13.0535 10.125 13.5 9 13.5C7.88203 13.5 6.80625 13.057 6.01172 12.2695L5.17852 13.1027C5.10469 13.1766 5.00273 13.2188 4.89727 13.2188C4.6793 13.2188 4.5 13.0395 4.5 12.8215V10.125Z" fill="#5A5A5A"/>
</svg>
