<svg width="322" height="291" viewBox="0 0 322 291" fill="none" xmlns="http://www.w3.org/2000/svg">
<g clip-path="url(#clip0_8_495)">
<path d="M101.518 84.8522C104.908 77.8669 105.545 73.4181 105.449 65.7269C105.369 59.197 107.333 52.6793 111.311 47.4247C116.777 40.3142 124.834 35.6539 133.724 34.4607C140.38 33.6104 145.479 34.6438 150.75 38.7345C151.578 38.5786 152.901 38.4528 153.746 38.4076C157.439 38.206 161.056 39.5086 163.772 42.0182C169.157 46.9081 170.888 55.4077 169.494 62.3248C168.691 66.3113 167.418 68.9587 167.587 73.0197C169.495 75.1377 170.104 77.5265 169.707 80.333C173.97 88.0737 176.067 94.9553 172.221 103.327C173.246 104.184 174.707 104.929 175.512 105.662L182.299 105.635C183.113 105.512 184.464 105.484 185.326 105.439C190.327 105.342 195.92 105.122 200.867 105.291C202.251 106.257 203.149 107.084 204.228 108.394C204.295 108.467 205.689 110.025 205.613 109.965C205.821 112.382 205.341 116.387 205.109 118.92L203.838 132.678C205.074 133.631 207.133 135.12 208.225 136.136C213.954 140.589 214.967 141.12 219.429 146.81C219.585 148.276 221.54 153.128 222.032 154.938C223.117 158.939 223.374 162.371 223.686 166.45C222.924 173.777 220.339 177.945 214.668 182.737C211.102 185.753 202.387 189.93 198.176 186.6L197.059 187.881L196.624 188.132L195.519 188.574C194.461 203.564 200.768 221.16 205.561 235.173C206.618 238.263 209.195 245.564 210.539 248.292C210.905 255.444 211.929 262.883 211.007 270.017C207.986 272.219 200.22 274.722 196.297 275.716C166.79 283.195 134.801 283.61 104.809 279.048C99.0338 278.171 77.6518 274.317 74.1096 270.147C73.5702 268.071 74.3023 266.428 73.9091 264.535C68.4938 265.1 65.3651 265.676 59.6789 264.849C50.7685 263.55 42.4363 259.165 37.1214 251.763C28.5378 239.807 28.8102 226.502 30.8926 212.785L30.7547 212.508L30.4856 212.476L30.2866 212.601C26.0073 209.219 21.6339 203.367 18.7232 198.727C7.70572 181.163 4.60843 159.97 9.83669 139.881C15.0779 120.022 27.9369 103.031 45.6245 92.5918C62.4739 82.6487 82.6014 79.8616 101.518 84.8522Z" fill="#FFB86C"/>
<path d="M144.782 189.997C146.31 190.689 148.499 194.775 150.609 195.641C152.132 195.602 153.501 194.873 154.998 194.478C163.17 192.328 170.182 188.444 177.023 183.588C177.431 183.297 177.689 183.044 178.147 182.745L178.264 183.077C176.471 184.926 171.003 188.026 168.629 189.373L184.373 189.042C187.032 189.005 193.019 189.024 195.52 188.574C194.461 203.564 200.768 221.16 205.562 235.173C206.618 238.263 209.195 245.564 210.539 248.292C210.905 255.443 211.929 262.883 211.007 270.017C207.987 272.219 200.22 274.722 196.297 275.716C166.791 283.194 134.801 283.61 104.809 279.048C99.034 278.171 77.652 274.317 74.1098 270.147C73.5704 268.071 74.3025 266.427 73.9093 264.535C76.016 267.114 93.217 258.531 96.0506 256.914C101.575 253.726 106.837 250.102 111.786 246.079C123.132 236.912 146.181 214.69 149.963 200.452C151.652 194.093 147.389 194.788 144.942 190.304C144.887 190.202 144.835 190.098 144.782 189.997Z" fill="#FFB86C"/>
<path d="M30.8926 212.785L30.7547 212.508L30.4856 212.475L30.2866 212.601C26.0073 209.219 21.6339 203.367 18.7232 198.727C7.70572 181.163 4.60843 159.97 9.83669 139.881C15.0779 120.022 27.9369 103.031 45.6245 92.5917C62.4739 82.6485 82.6014 79.8615 101.518 84.852C97.9558 91.9718 93.859 100.571 100.578 107.391C95.84 111.942 89.8305 120.118 94.4107 126.654C94.0781 127.083 86.313 130.495 84.8536 131.389C62.4925 145.078 44.8753 171.948 35.7491 196.144C34.4058 199.772 33.2377 203.466 32.2491 207.208C31.91 208.511 31.3142 211.75 30.8926 212.785Z" fill="#7ACBFF"/>
<path d="M185.326 105.439C190.327 105.342 195.92 105.122 200.867 105.291C202.251 106.257 203.149 107.084 204.228 108.394C204.295 108.467 205.689 110.025 205.613 109.965C205.821 112.381 205.341 116.387 205.109 118.92L203.838 132.678C205.074 133.631 207.133 135.12 208.225 136.136C213.954 140.589 214.967 141.12 219.429 146.81C219.585 148.276 221.54 153.128 222.032 154.938C223.117 158.939 223.374 162.371 223.686 166.45C222.924 173.777 220.339 177.945 214.668 182.737C211.102 185.753 202.387 189.929 198.176 186.599L197.059 187.881L196.624 188.132L195.519 188.574C193.019 189.024 187.032 189.005 184.373 189.042L168.628 189.373C171.003 188.026 176.471 184.926 178.264 183.077L178.147 182.745C177.689 183.044 177.431 183.298 177.022 183.588C170.182 188.444 163.17 192.328 154.997 194.479C153.5 194.873 152.131 195.602 150.608 195.641C148.499 194.775 146.31 190.689 144.781 189.997C144.732 189.96 144.682 189.925 144.633 189.888C140.386 184.843 136.47 178.22 134.052 172.119C133.048 169.585 132.61 167.353 132.351 165.013C132.916 163.934 133.498 162.865 134.096 161.806C137.022 156.683 149.492 142.347 154.836 140.888C154.943 137.861 155.563 133.165 155.888 130.021L156.069 128.997C156.088 125.918 157.19 117.405 157.556 114.038C158.745 108.461 157.728 106.053 164.887 105.827L175.512 105.662L182.299 105.635C183.113 105.512 184.464 105.484 185.326 105.439Z" fill="#FAC4B7"/>
<path d="M185.326 105.439C190.327 105.342 195.92 105.122 200.867 105.291C202.251 106.257 203.15 107.084 204.228 108.394C204.295 108.467 205.689 110.025 205.614 109.965C205.821 112.381 205.341 116.387 205.109 118.92L203.838 132.678L203.656 134.674C200.536 134.289 197.81 132.574 194.244 132.691C190.243 132.823 187.632 133.104 186.38 137.441C188.011 143.495 191.471 142.124 194.933 144.824L193.177 145.312C188.794 145.6 181.459 147.28 183.54 153.292C183.221 153.44 182.39 153.799 182.13 153.959C181.957 153.851 181.781 153.743 181.604 153.639C178.519 151.835 175.171 152.548 171.908 153.37C174.262 151.192 177.05 148.94 178.285 145.914C179.234 144.039 178.234 140.455 175.947 139.994C170.019 138.797 162.37 144.638 157.62 147.236C156.426 148.183 155.205 148.834 153.868 149.549L154.836 140.888C154.943 137.861 155.563 133.165 155.888 130.021L156.069 128.997C156.088 125.918 157.19 117.405 157.556 114.038C158.745 108.461 157.728 106.053 164.888 105.827L175.513 105.662L182.299 105.635C183.113 105.512 184.464 105.484 185.326 105.439Z" fill="#7ACBFF"/>
<path d="M175.513 105.662L182.299 105.635C183.189 105.688 183.717 105.559 184.326 106.027C184.12 106.838 182.334 107.872 181.506 108.671C160.381 110.275 162.009 103.388 159.573 126.533L158.361 138.435C158.079 141.167 157.642 144.515 157.62 147.236C156.426 148.183 155.205 148.834 153.868 149.549L154.836 140.888C154.943 137.861 155.563 133.165 155.888 130.021L156.069 128.997C156.088 125.918 157.19 117.405 157.556 114.038C158.745 108.461 157.728 106.053 164.888 105.827L175.513 105.662Z" fill="#5FB9F2"/>
<path d="M185.326 105.439C190.327 105.342 195.92 105.122 200.867 105.291C202.251 106.257 203.149 107.084 204.228 108.394C196.658 108.724 189.08 108.817 181.506 108.671C182.333 107.872 184.12 106.838 184.325 106.027C183.717 105.559 183.189 105.688 182.299 105.635C183.113 105.512 184.464 105.484 185.326 105.439Z" fill="#5FB9F2"/>
<path d="M167.732 113.464C169.054 113.083 170.477 113.447 171.454 114.414C172.431 115.382 172.808 116.803 172.44 118.126C172.073 119.451 171.017 120.475 169.682 120.8C167.674 121.289 165.644 120.083 165.114 118.087C164.583 116.09 165.747 114.036 167.732 113.464Z" fill="#5393AB"/>
<path d="M175.996 115.471C176.791 115.272 177.6 115.744 177.82 116.532C178.04 117.322 177.591 118.143 176.807 118.385C176.282 118.546 175.71 118.409 175.314 118.028C174.918 117.647 174.76 117.08 174.902 116.549C175.043 116.019 175.462 115.605 175.996 115.471Z" fill="#5393AB"/>
<path d="M183.061 159.957C184.178 162.423 183.474 162.85 186.062 164.755L187.298 165.989C186.46 167.074 186.244 167.591 185.86 168.927C187.835 175.594 193.659 175.551 199.059 177.973C198.953 180.552 198.774 184.075 198.176 186.599L197.059 187.881L196.624 188.132L195.519 188.574C193.018 189.024 187.032 189.005 184.373 189.042L168.628 189.373C171.003 188.026 176.471 184.926 178.264 183.077C181.844 180.528 183.355 177.032 180.805 173.143C181.054 172.402 181.74 171.703 182.258 171.084C185.064 168.165 184.408 164.803 181.825 162.09C182.446 161.358 182.647 160.821 183.061 159.957Z" fill="#5FB9F2"/>
<path d="M184.165 157.162C183.858 158.062 183.423 159.065 183.061 159.957C182.648 160.821 182.446 161.358 181.825 162.09C178.959 163.445 175.916 164.365 172.959 165.498C171.167 166.182 169.925 167.297 167.9 166.914L167.701 166.615C168.653 165.357 179.503 161.793 181.762 160.981C182.533 159.712 183.371 158.422 184.165 157.162Z" fill="#FAA08F"/>
<path d="M184.704 154.916C188.63 155.276 197.566 153.923 200.898 156.441L201.028 156.811C200.257 157.257 198.014 156.774 197.109 156.532C193.675 155.611 189.357 155.739 185.785 156.272L185.56 156.081L185.562 155.899L184.704 154.916Z" fill="#FAA08F"/>
<path d="M186.062 164.755L186.294 164.787C190.453 165.35 196.71 164.928 200.779 167.431L200.887 167.73C198.999 168.319 192.499 166.063 190.146 166.24C190.163 166.238 187.307 165.991 187.298 165.989L186.062 164.755Z" fill="#FAA08F"/>
<path d="M180.805 173.143C178.538 174.698 175.603 175.642 173.11 176.845C172.215 177.278 171.325 177.772 170.474 177.027L170.713 176.579C172.618 175.395 175.984 174.381 178.108 173.191C178.998 172.69 181.474 171.203 182.258 171.084C181.74 171.703 181.054 172.402 180.805 173.143Z" fill="#FAA08F"/>
<path d="M194.933 144.824C197.146 144.855 200.361 145.149 202.379 146.082L202.636 146.524L202.455 146.888C201.727 147.011 194.251 145.608 193.177 145.312L194.933 144.824Z" fill="#FAA08F"/>
<path d="M183.539 153.292C183.916 153.912 184.172 154.425 184.704 154.916L185.562 155.899C185.306 156.278 184.143 157.56 183.695 158.149C183.368 156.183 183.228 155.609 182.13 153.959C182.39 153.799 183.221 153.44 183.539 153.292Z" fill="#5FB9F2"/>
<path d="M203.838 132.678C205.074 133.63 207.134 135.12 208.225 136.136C206.999 136.549 204.958 135.291 203.656 134.674L203.838 132.678Z" fill="#FFB86C"/>
<path d="M101.518 84.8522C104.908 77.8669 105.544 73.4181 105.449 65.7269C105.369 59.197 107.333 52.6793 111.311 47.4247C116.777 40.3142 124.834 35.6539 133.724 34.4607C140.38 33.6104 145.479 34.6438 150.75 38.7345C151.578 38.5786 152.901 38.4528 153.746 38.4076C157.439 38.206 161.056 39.5086 163.772 42.0182C169.157 46.9081 170.888 55.4077 169.494 62.3248C168.691 66.3113 167.418 68.9587 167.587 73.0197C169.495 75.1377 170.104 77.5265 169.707 80.333C173.97 88.0737 176.067 94.9553 172.221 103.327C173.246 104.184 174.707 104.929 175.512 105.662L164.887 105.827C157.728 106.053 158.745 108.461 157.556 114.038C156.486 114.625 153.858 116.799 153.193 116.82C152.962 117.095 152.464 117.615 152.113 117.608C152.312 117.318 152.773 116.734 152.73 116.383C152.198 112.059 151.926 107.756 151.959 103.401C151.86 103.27 151.76 103.14 151.661 103.009C142.746 106.358 135.26 104.926 127.222 100.137C126.347 99.4838 125.512 98.6909 124.697 97.9558L122.783 98.4283L120.912 98.6305C113.577 99.6483 105.924 101.951 100.577 107.391C93.8589 100.571 97.9556 91.9719 101.518 84.8522Z" fill="#FAC4B7"/>
<path d="M101.518 84.8522C104.908 77.8669 105.544 73.4181 105.449 65.7269C105.369 59.197 107.333 52.6793 111.311 47.4247C116.777 40.3142 124.834 35.6539 133.724 34.4607C140.38 33.6104 145.479 34.6438 150.75 38.7345C151.578 38.5786 152.901 38.4528 153.746 38.4076C157.439 38.206 161.056 39.5086 163.772 42.0182C169.157 46.9081 170.888 55.4077 169.494 62.3248C168.691 66.3113 167.418 68.9587 167.587 73.0197C166.801 72.4903 167.055 72.4831 166.314 72.5646C165.295 73.3111 165.118 74.2159 164.334 75.2604C163.696 71.2929 163.153 66.991 161.303 63.3844C159.374 59.6242 155.75 57.236 153.247 53.8823L153.044 53.6156C149.227 62.0439 142.18 65.4039 133.522 67.2252C130.228 67.9181 126.67 68.0588 123.698 69.6253C121.664 70.2093 120.344 76.825 118.536 76.0674C116.674 75.2877 116.314 70.6962 113.558 71.7015C108.741 73.4588 107.516 78.0892 109.329 82.4731C111.21 87.0193 114.114 88.5518 118.635 89.06C120.376 92.8767 121.543 95.0943 124.697 97.9558L122.783 98.4283L120.912 98.6305C113.577 99.6483 105.924 101.951 100.577 107.391C93.8589 100.571 97.9556 91.9719 101.518 84.8522Z" fill="url(#paint0_linear_8_495)"/>
<path d="M169.707 80.3329C173.97 88.0736 176.067 94.9552 172.221 103.327C173.246 104.184 174.708 104.929 175.513 105.662L164.888 105.827C163.426 103.426 159.88 102.07 157.392 101.032C157.165 100.929 155.518 100.532 155.171 100.443C155.779 99.8336 156.395 99.2319 157.019 98.6378C159.937 94.6807 160.714 93.0289 162.482 88.5636C167.142 86.7762 168.092 84.6879 169.707 80.3329Z" fill="#A37974"/>
<path d="M155.171 100.443C155.779 99.8336 156.395 99.2319 157.019 98.6378L159.515 99.1057C160.305 99.2514 163.131 99.9817 163.734 100.016C165.737 100.129 170.973 103.2 172.221 103.327C173.246 104.184 174.708 104.929 175.513 105.662L164.888 105.827C163.426 103.426 159.88 102.07 157.392 101.032C157.165 100.929 155.518 100.532 155.171 100.443Z" fill="#FFB86C"/>
<path d="M155.171 100.443C155.779 99.8336 156.395 99.2319 157.019 98.6378L159.515 99.1057C158.894 100.003 158.309 100.424 157.392 101.032C157.165 100.929 155.518 100.532 155.171 100.443Z" fill="#FAA08F"/>
<path d="M155.171 100.443C155.518 100.532 157.165 100.929 157.392 101.032C159.88 102.07 163.426 103.426 164.888 105.826C157.728 106.053 158.745 108.461 157.557 114.038C156.487 114.624 153.858 116.798 153.193 116.82C152.165 112.063 152.69 107.061 152.079 102.444L155.171 100.443Z" fill="#D68835"/>
<path d="M130.981 80.7938C136.039 80.417 139.264 87.9612 132.981 90.0027C130.015 90.567 129.163 88.9147 127.607 86.7067C127.69 83.5055 128.214 82.48 130.981 80.7938Z" fill="#FAA08F"/>
<path d="M158.015 81.5185C159.651 81.4685 159.729 81.6114 160.654 82.944C161.12 86.8037 160.846 89.2224 156.612 89.8542C154.167 88.3799 152.066 85.7469 154.229 82.8897C155.179 81.6339 156.548 81.6488 158.015 81.5185Z" fill="#FAA08F"/>
<path d="M144.915 85.4663C144.78 84.0604 145.907 75.1849 146.74 74.2242L147.077 74.3089C147.671 75.3001 147.8 76.5483 148.022 77.7128L148.955 81.3195C149.43 83.0151 149.935 84.0581 149.02 85.7549C148.116 87.4336 145.87 86.5668 144.915 85.4663Z" fill="#FAA08F"/>
<path d="M148.022 77.7128L148.955 81.3195C149.43 83.0151 149.935 84.058 149.02 85.7549C148.116 87.4336 145.87 86.5668 144.915 85.4663C149.065 85.46 149.18 84.7559 148.185 81.1483C147.719 79.6149 147.521 79.2033 148.022 77.7128Z" fill="#FAA08F"/>
<path d="M112.908 76.9818C115.058 77.4716 117.549 79.9433 118.07 82.2283C118.131 82.4972 117.881 82.647 117.686 82.8562C117.151 82.6784 116.848 82.5719 116.292 82.4688L115.906 82.3995C115.379 83.1742 115.527 83.2511 114.844 83.4405L114.72 83.1004C114.948 81.9228 115.332 81.6634 116.143 80.7726C114.753 79.2176 114.067 79.2243 112.686 77.9302C112.494 77.7502 112.759 77.3564 112.908 76.9818Z" fill="#FAA08F"/>
<path d="M136.023 76.3658C139.029 76.423 138.404 79.7667 137.184 81.5021C134.443 81.2758 134.908 78.075 136.023 76.3658Z" fill="#573F3B"/>
<path d="M153.588 76.3241C156.384 76.6238 155.858 79.7319 154.523 81.404C151.715 81.3334 152.264 77.9549 153.588 76.3241Z" fill="#573F3B"/>
<path d="M153.579 70.8599C153.941 70.8793 154.303 70.9079 154.663 70.9454C155.995 71.0937 156.747 71.5293 157.567 72.5662L157.496 72.9804C156.723 73.0861 156.839 72.9718 155.987 72.558C154.658 71.918 153.347 72.6961 151.687 72.1518L151.616 71.8009C152.407 70.995 152.324 71.2193 153.579 70.8599Z" fill="#A37974"/>
<path d="M135.445 71.0612C136.999 70.978 137.632 70.9321 138.92 71.7084L138.869 72.031C138.271 72.3447 138.247 72.3739 137.567 72.349L135.859 72.2966C134.79 72.6268 133.907 73.0949 132.899 72.8711L132.74 72.5796C133.382 71.667 134.422 71.3829 135.445 71.0612Z" fill="#A37974"/>
<path d="M139.089 88.2183C140.129 88.5714 140.864 90.0152 141.884 90.5478C142.75 90.9997 144.215 90.8676 145.032 91.3779L145.033 91.9365C142.697 92.2637 138.763 91.0843 139.089 88.2183Z" fill="#FAA08F"/>
<path d="M164.008 79.7355L164.749 79.5908C164.617 80.2365 164.611 80.2109 164.681 80.8633C165.383 81.6402 165.666 81.7341 165.584 82.7968C165.1 83.395 164.718 83.636 164.025 83.2864C163.622 82.4586 163.918 80.744 164.008 79.7355Z" fill="#FAA08F"/>
<path d="M164.008 79.7355C164.221 78.3026 164.989 76.688 166.773 77.3958C166.653 78.2385 165.434 78.6854 164.749 79.5909L164.008 79.7355Z" fill="#D68835"/>
<path d="M101.577 175.009C102.023 174.728 102.478 174.461 102.939 174.208C109.405 170.661 125.241 162.956 132.351 165.013C132.61 167.353 133.048 169.585 134.052 172.119C136.47 178.22 140.386 184.843 144.633 189.888C144.683 189.925 144.732 189.96 144.782 189.997C144.835 190.098 144.887 190.202 144.942 190.304C147.389 194.788 151.652 194.093 149.963 200.452C146.181 214.69 123.132 236.912 111.786 246.079C106.837 250.102 101.575 253.726 96.0505 256.914C93.2169 258.531 76.0159 267.114 73.9091 264.535C74.1456 264.202 74.3935 263.983 74.8129 263.879C100.749 257.433 121.369 237.41 138.159 217.631C142.883 212.064 148.286 204.319 149.259 197.062C141.061 188.905 133.048 177.415 131.158 165.84C117.693 166.494 102.248 175.895 90.8079 182.602C79.7588 189.083 68.5428 196.386 58.7321 204.531C58.5279 204.7 58.2107 204.367 58.1187 204.302L58.172 203.832C59.7368 201.615 65.6711 197.326 67.9768 195.62C65.4968 195.754 59.1223 197.263 57.7786 197.111L57.7916 196.687C59.7668 194.613 68.3726 194.779 70.4258 193.701C74.3686 191.629 78.873 188.442 82.698 186.021C88.347 182.518 94.0676 179.132 99.8564 175.867C100.662 173.795 102.804 167.451 103.568 166.084L103.907 166.024L104.484 166.567C104.712 167.487 102.061 173.79 101.577 175.009Z" fill="#D68835"/>
<path d="M124.697 97.9557C125.512 98.6908 126.347 99.4836 127.222 100.137C127.04 102.254 126.522 112.89 126.026 114.278C122.712 112.773 109.869 108.11 116.102 103.463C117.373 102.515 120.242 101.346 121.8 100.743C121.183 99.9505 121.176 99.6361 120.912 98.6304L122.783 98.4281L124.697 97.9557Z" fill="#D68835"/>
<path d="M120.912 98.6303L122.783 98.4281C122.894 99.4356 122.441 100.001 121.801 100.743C121.183 99.9504 121.176 99.6361 120.912 98.6303Z" fill="#FAA08F"/>
<path d="M127.223 100.137C135.26 104.926 142.746 106.358 151.661 103.009C150.234 105.486 143.676 107.638 141.078 108.363C136.028 109.771 130.317 109.675 126.806 114.261C126.6 114.529 126.265 114.397 126.026 114.278C126.522 112.89 127.04 102.254 127.223 100.137Z" fill="#FAA08F"/>
<path d="M155.889 130.021C154.052 130.437 151.441 131.372 149.699 130.991L149.555 130.686C150.399 129.857 155.1 128.64 156.069 128.997L155.889 130.021Z" fill="#D68835"/>
<path d="M95.468 126.191C99.1631 126.291 126.557 128.85 127.72 130.129L127.488 130.645C121.262 130.415 114.6 129.032 108.333 128.64C106.333 128.516 96.0692 127.908 95.1787 126.704L95.468 126.191Z" fill="#D68835"/>
<path d="M271.317 19.6978L275.818 19.7058L276.034 30.3383L271.282 30.2907C271.293 31.4363 271.265 33.4038 271.388 34.4641L271.405 34.715C272.098 34.2114 274.785 34.3816 275.827 34.3896C275.844 35.2028 275.957 37.7543 275.829 38.401C276.55 39.636 276.041 45.055 276.047 46.9827C276.008 48.4043 275.948 49.8838 275.95 51.3009L280.274 51.3239C280.261 52.6795 280.291 54.3298 280.224 55.6594C281.322 55.6521 288.558 55.481 288.941 55.8207C288.963 56.4893 288.885 57.1989 289.24 57.7183C290.719 57.8757 296.069 57.7155 297.803 57.6154L298.002 57.7473C297.959 59.0601 297.723 60.0794 298.968 60.8381C299.862 60.8225 300.986 60.8368 301.856 60.7591L301.848 65.042L297.515 65.1067L297.535 69.5036L301.839 69.5034C302.001 72.2391 301.956 75.6308 301.865 78.4042L297.526 78.357C297.548 81.4023 297.552 84.4479 297.539 87.4932C294.711 87.5337 291.591 87.5127 288.783 87.6268L288.826 92.0123L293.096 91.9771L293.168 96.5475L301.861 96.5419C301.921 98.0915 301.958 99.3449 301.9 100.891L297.416 100.929L297.316 105.228L293.308 105.232L293.2 100.901C290.301 100.906 287.356 100.884 284.461 100.919L284.496 105.197L280.315 105.193C280.27 103.769 280.233 102.344 280.205 100.919L275.824 100.909L275.766 105.216L271.674 105.222L271.581 101.013C270.13 100.971 268.742 100.921 267.291 100.961C267.324 101.998 267.53 104.334 267.045 105.139L266.586 105.297L267.088 105.484L267.447 105.299C267.759 104.32 267.618 102.497 267.642 101.355L271.297 101.33C271.288 102.797 271.323 104.545 271.247 105.986C266.514 106.026 262.597 106.511 257.975 106.775L238.603 107.766C237.208 107.849 229.438 108.004 228.738 108.433L228.572 108.804C231.793 110.123 230.475 112.75 228.827 112.771C223.529 112.843 218.064 113.009 212.798 112.656C211.692 112.581 211.421 110.758 211.395 109.683C211.391 109.46 211.389 109.237 211.389 109.014C203.17 109.336 192.465 110.013 184.382 109.965C184.458 110.025 183.064 108.467 182.997 108.394C181.918 107.084 181.02 106.257 179.636 105.291C174.689 105.122 169.096 105.342 164.095 105.439C165.218 103.883 173.243 96.7331 175.213 94.9338L198.954 73.1709C202.611 69.8647 209.388 64.1946 212.504 60.789C205.367 60.7755 196.728 61.0087 189.726 60.5064C189.923 60.3761 191.151 60.4003 191.484 60.3925C191.878 59.7577 191.948 59.2352 192.062 58.4945C191.528 57.9246 190.939 58.0377 190.001 57.9411C192.175 57.5449 196.743 57.6559 199.11 57.6466C204.177 57.6438 209.243 57.612 214.307 57.5511L214.543 57.5384C214.948 57.515 216.561 57.4396 216.795 57.2212C218.607 55.5295 221.19 53.0781 222.78 51.2977L224.557 51.2962L228.47 51.2866L228.539 46.8461C231.217 46.8842 234.309 46.9968 236.957 46.9218L237.089 51.3226C238.198 51.3447 240.079 51.134 240.95 51.5575C241.428 52.3069 241.255 52.3567 241.277 53.418L241.411 53.4594C241.513 52.7399 241.489 51.9938 241.498 51.2611C241.374 50.3259 241.431 48.075 241.428 47.0303L245.967 46.9905C245.977 44.1535 246.129 41.45 246.019 38.5931C247.3 38.5656 248.955 38.4157 250.15 38.723L250.21 38.6193C251.059 38.6019 251.403 38.5733 252.241 38.4424C252.633 37.7389 252.116 36.4134 252.477 34.9753C253.092 34.4573 253.601 34.5128 254.484 34.3515C255.078 33.5361 254.35 33.228 254.74 31.7628L255.166 31.592C256.68 31.7366 257.273 31.732 258.787 31.648C261.655 31.5424 264.524 31.5311 267.382 31.4235L267.337 27.8696L271.438 27.8499C271.386 25.2016 271.282 22.3302 271.317 19.6978Z" fill="#6DC187"/>
<path d="M212.504 60.7889C217.886 60.8718 223.271 60.8525 228.656 60.7308L228.647 64.9501C229.552 64.9856 230.934 64.9956 231.787 65.1539L232.432 65.1658C233.19 66.0331 232.813 68.1907 232.887 69.5059L237.146 69.5801C237.193 70.703 237.399 72.7419 236.91 73.7002C237.587 73.8083 238.592 73.977 239.276 73.9616C240.521 73.9337 244.706 72.512 245.601 73.558C245.607 74.4169 245.739 74.0547 245.237 74.6995C244.224 75.091 242.619 74.782 241.431 74.6748L241.387 78.288L245.759 78.3327L245.804 82.9752C246.813 82.9867 249.463 83.0854 250.295 82.8763L250.334 83.122L250.247 87.6834L245.951 87.7046L245.995 91.9973L254.439 92.0239L254.426 96.4112V100.863C255.842 100.885 257.258 100.891 258.674 100.88L258.728 100.768C260.166 100.841 261.604 100.878 263.041 100.878L263.067 105.178C264.158 105.21 265.52 105.216 266.586 105.297L267.088 105.484L267.447 105.299C267.759 104.32 267.618 102.497 267.642 101.355L271.297 101.33C271.288 102.797 271.323 104.545 271.247 105.986C266.514 106.026 262.597 106.511 257.975 106.775L238.603 107.766C237.208 107.849 229.438 108.004 228.738 108.433L228.572 108.803C231.793 110.123 230.475 112.749 228.827 112.771C223.529 112.843 218.064 113.009 212.798 112.656C211.692 112.581 211.421 110.758 211.395 109.682C211.391 109.46 211.389 109.237 211.389 109.014C203.17 109.336 192.465 110.013 184.382 109.965C184.458 110.025 183.064 108.467 182.997 108.394C181.918 107.084 181.02 106.257 179.636 105.291C174.689 105.122 169.096 105.342 164.095 105.439C165.218 103.883 173.243 96.733 175.213 94.9337L198.954 73.1709C202.611 69.8646 209.388 64.1945 212.504 60.7889Z" fill="white"/>
<path d="M211.389 109.014C211.369 105.334 210.774 98.1939 212.006 94.6447C212.432 93.4179 215.043 93.9716 215.154 95.6134C215.455 100.035 215.305 104.543 215.398 109.005C218.499 108.915 225.915 109.217 228.571 108.803C231.793 110.123 230.475 112.75 228.827 112.771C223.529 112.843 218.064 113.009 212.798 112.656C211.692 112.581 211.421 110.758 211.395 109.683C211.391 109.46 211.389 109.237 211.389 109.014Z" fill="#8BD5B9"/>
<path d="M254.426 96.4113V100.863C253.159 100.821 251.589 100.88 250.297 100.893L250.279 105.225C248.911 105.29 247.564 105.236 246.196 105.204C246.137 102.317 246.17 99.3132 246.161 96.416C248.915 96.4918 251.672 96.4903 254.426 96.4113Z" fill="#6DC187"/>
<path d="M254.426 100.863C255.842 100.885 257.258 100.891 258.674 100.88L258.667 105.134C257.299 105.159 255.876 105.137 254.502 105.131L254.426 100.863Z" fill="#6DC187"/>
<path d="M221.262 82.5182C225.083 82.1206 229.557 82.6026 233.443 82.4554C236.069 82.356 238.893 82.4335 241.508 82.5528C241.848 82.5684 242.797 83.5436 242.654 83.9125C242.807 89.9911 242.697 96.1003 242.738 102.185C242.749 103.781 242.777 103.875 241.653 104.963C238.906 105.15 222.628 105.386 221.236 104.556C220.723 104.25 220.645 103.773 220.547 103.223C220.012 100.2 220.588 96.4225 220.597 93.3157C220.606 90.3007 220.22 87.149 220.543 84.1516C220.617 83.4624 220.857 83.0701 221.262 82.5182Z" fill="#6DC187"/>
<path d="M224.434 85.7482C227.056 85.6209 236.583 85.3673 238.7 86.0428C239.662 86.9438 239.705 90.1073 239.584 91.398C239.352 93.8589 240.214 99.903 238.765 101.547C237.202 101.606 224.659 102.085 224.291 101.194C223.462 99.1889 223.219 87.3207 224.434 85.7482Z" fill="#EFFAFB"/>
<path d="M227.97 88.4396C229.888 88.4089 234.06 88.2164 235.723 88.612C237.535 89.8126 236.836 95.7514 236.632 97.7475C236.574 98.3129 235.994 98.6359 235.546 98.9022C234.162 98.9269 227.768 99.3671 227.134 98.2726C226.281 96.794 226.411 91.1498 226.846 89.2576C226.98 88.6763 227.502 88.6057 227.97 88.4396Z" fill="#6DC187"/>
<path d="M220.387 65.1733L228.452 65.0872C228.45 66.5612 228.448 67.4509 228.624 68.9195L228.751 69.3742C229.656 69.6275 231.793 69.4998 232.85 69.4937C232.837 70.7474 232.763 72.5217 232.833 73.7316C232.012 73.8888 229.513 73.8704 228.546 73.8836C228.465 75.2676 228.472 76.8659 228.444 78.2688C225.766 78.29 223.085 78.2807 220.407 78.2408L220.398 74.0335L224.622 73.8921C224.685 72.4473 224.64 70.9364 224.618 69.4844L220.431 69.3969L220.387 65.1733Z" fill="#6DC187"/>
<path d="M236.634 73.8995L236.972 74.1362C237.202 75.2218 237.096 77.0187 237.074 78.1998L232.906 78.1931C232.826 77.0706 232.564 75.0323 232.997 74.0755L233.582 73.8898C234.701 73.9417 235.504 73.9909 236.634 73.8995Z" fill="#6DC187"/>
<path d="M271.316 19.6978L275.818 19.7058L276.034 30.3383L271.282 30.2907C271.293 31.4363 271.264 33.4038 271.388 34.4641L271.405 34.715C272.098 34.2114 274.785 34.3816 275.826 34.3896C275.844 35.2028 275.956 37.7543 275.829 38.401C276.55 39.636 276.041 45.055 276.047 46.9827C276.008 48.4043 275.948 49.8838 275.95 51.3009L280.274 51.3239C280.261 52.6795 280.291 54.3298 280.224 55.6594L280.196 57.7631C278.76 57.6289 277.461 57.6973 276.023 57.7397C274.748 57.8266 272.858 57.7635 271.535 57.7584C268.753 57.7215 265.919 57.7454 263.132 57.741C260.231 57.7484 257.327 57.7343 254.426 57.699C252.085 57.7406 243.641 57.9619 241.649 57.6802C241.253 57.0878 241.357 56.3876 241.352 55.6367C241.329 54.9354 241.381 54.1674 241.411 53.4594C241.513 52.7399 241.489 51.9938 241.498 51.2611C241.374 50.3259 241.43 48.075 241.428 47.0303L245.966 46.9905C245.977 44.1535 246.129 41.45 246.018 38.5931C247.3 38.5656 248.954 38.4157 250.15 38.723L250.21 38.6193C251.059 38.6019 251.403 38.5733 252.241 38.4424C252.633 37.7389 252.116 36.4134 252.477 34.9753C253.092 34.4573 253.601 34.5128 254.484 34.3515C255.078 33.5361 254.35 33.228 254.74 31.7628L255.166 31.592C256.68 31.7366 257.273 31.732 258.787 31.648C261.655 31.5424 264.524 31.5311 267.382 31.4235L267.337 27.8696L271.438 27.8499C271.386 25.2016 271.282 22.3302 271.316 19.6978Z" fill="#6DC187"/>
<path d="M271.316 19.6978L275.818 19.7058L276.034 30.3383L271.282 30.2907C271.292 31.4363 271.264 33.4038 271.388 34.4641L267.436 34.4758C267.438 35.5495 267.638 37.1233 267.25 38.0437C266.761 38.4932 266.345 38.4263 265.663 38.4655C264.689 38.3233 264.364 38.3988 263.366 38.5054C262.779 37.8673 262.998 35.5354 263.006 34.5414L258.75 34.4526L258.786 31.648C261.655 31.5424 264.524 31.5311 267.382 31.4235L267.337 27.8696L271.437 27.8499C271.385 25.2016 271.282 22.3302 271.316 19.6978Z" fill="#6DC187"/>
<path d="M262.998 46.9857L267.395 46.939L267.399 51.3287L271.502 51.3154L271.528 46.9916L276.047 46.9827C276.008 48.4044 275.947 49.8838 275.95 51.3009L280.274 51.3239C280.261 52.6795 280.291 54.3298 280.224 55.6594L280.196 57.7631C278.76 57.6289 277.461 57.6973 276.023 57.7397C274.748 57.8266 272.858 57.7636 271.535 57.7584L271.466 55.7919C270.244 55.7411 268.625 55.7937 267.373 55.7969L267.304 51.462L263.039 51.4752L262.998 46.9857Z" fill="#EFFAFB"/>
<path d="M271.539 51.4961C272.979 51.4498 274.465 51.4219 275.898 51.3539V55.7111L280.224 55.6593L280.196 57.763C278.76 57.6288 277.461 57.6972 276.024 57.7396C274.748 57.8265 272.858 57.7635 271.535 57.7583L271.466 55.7918L271.509 55.7096L271.539 51.4961Z" fill="#6DC187"/>
<path d="M271.509 55.7096C273.508 55.869 274.976 55.3151 275.935 56.375C275.972 56.8292 276.002 57.2844 276.024 57.7397C274.748 57.8265 272.858 57.7635 271.535 57.7583L271.466 55.7919L271.509 55.7096Z" fill="#EFFAFB"/>
<path d="M250.21 38.6192C251.059 38.6019 251.403 38.5733 252.241 38.4423C252.633 37.7389 252.116 36.4133 252.477 34.9752C253.092 34.4573 253.601 34.5127 254.484 34.3514C255.078 33.536 254.35 33.2279 254.74 31.7628L255.166 31.5919C256.68 31.7366 257.273 31.732 258.787 31.648L258.75 34.4525L263.007 34.5413C262.998 35.5354 262.779 37.8673 263.366 38.5053C263.442 39.1276 263.526 39.66 263.513 40.2903C263.522 41.0659 263.574 41.4197 263.336 42.1695C262.632 42.5401 262.288 42.3652 261.35 42.3297C261.352 40.8498 261.723 37.1326 258.99 38.7686C258.538 39.6338 258.663 41.3073 258.633 42.4178L255.454 42.3685L255.257 38.5209L252.59 38.6097C252.65 40.0926 253.021 42.0915 251.319 42.779C249.604 42.0549 250.048 40.2806 250.15 38.7229L250.21 38.6192Z" fill="#EFFAFB"/>
<path d="M258.75 34.4526L258.728 38.3294L255.242 38.3497L255.203 34.5763L258.75 34.4526Z" fill="#6DC187"/>
<path d="M250.117 46.9457C251.516 46.9514 253.053 46.926 254.439 46.9774L254.437 51.324L258.735 51.3519L258.745 55.6482C259.993 55.6392 261.725 55.3999 262.801 55.8719C263.325 56.6314 263.134 56.6048 263.132 57.7409C260.231 57.7483 257.327 57.7342 254.426 57.6989C254.404 56.4883 254.61 56.6111 254.002 55.9122C252.977 55.4428 251.408 55.7294 250.163 55.7654C250.093 52.8259 250.078 49.8856 250.117 46.9457Z" fill="#EFFAFB"/>
<path d="M271.388 34.464L271.405 34.7149L271.423 38.4663C272.15 38.4739 274.019 38.4425 274.636 38.5917L274.532 42.463L271.498 42.3076C271.388 40.9751 271.288 39.8533 271.295 38.5137L268.064 38.5311C268.196 40.0729 268.235 40.9021 268.181 42.4435L265.657 42.4009C265.648 41.6368 265.672 39.9666 265.551 39.2839L265.663 38.4655C266.345 38.4263 266.761 38.4932 267.25 38.0437C267.638 37.1233 267.439 35.5494 267.436 34.4757L271.388 34.464Z" fill="#EFFAFB"/>
<path d="M241.497 51.261L245.525 51.3058L245.535 55.6892L241.352 55.6366C241.328 54.9353 241.38 54.1673 241.411 53.4593C241.512 52.7398 241.489 51.9937 241.497 51.261Z" fill="#EFFAFB"/>
<path d="M263.366 38.5053C264.364 38.3988 264.689 38.3232 265.663 38.4655L265.55 39.2839L265.291 40.1259C264.596 40.247 264.186 40.1088 263.513 40.2903C263.526 39.66 263.442 39.1276 263.366 38.5053Z" fill="#58B46C"/>
<path d="M228.539 46.8461C231.217 46.8842 234.309 46.9968 236.957 46.9218L237.089 51.3226C238.198 51.3447 240.079 51.134 240.95 51.5575C241.428 52.3069 241.255 52.3567 241.277 53.418L241.411 53.4594C241.381 54.1674 241.329 54.9354 241.353 55.6367C241.357 56.3876 241.253 57.0878 241.649 57.6802C243.641 57.9619 252.085 57.7406 254.426 57.699C257.327 57.7343 260.231 57.7484 263.132 57.741C265.919 57.7454 268.753 57.7215 271.535 57.7584C272.858 57.7635 274.748 57.8266 276.024 57.7397C277.461 57.6973 278.76 57.6289 280.196 57.7631L280.224 55.6594C281.322 55.6521 288.558 55.481 288.941 55.8207C288.963 56.4893 288.885 57.1989 289.24 57.7183C290.719 57.8757 296.069 57.7155 297.803 57.6154L298.002 57.7473C297.959 59.0601 297.723 60.0794 298.968 60.8381L293.321 60.863L288.984 60.8394C288.978 61.9348 289.015 63.5853 288.919 64.6224C288.928 63.5569 289.09 61.602 288.601 60.7931C287.3 60.8481 286.009 60.8143 284.706 60.795C283.322 60.7513 281.59 60.813 280.179 60.8232C278.834 60.8433 277.357 60.8944 276.026 60.8528C274.789 60.7736 272.778 60.8556 271.483 60.8693L267.207 60.8515C265.243 60.8286 260.631 60.6753 258.908 60.8953C258.57 61.4495 258.674 62.3912 258.681 63.0925C258.639 62.3306 258.726 61.6189 258.26 61.0773C257.36 60.5921 255.593 60.8201 254.469 60.8136C253.454 60.7041 251.204 60.7885 250.089 60.8004C247.796 60.8271 243.325 60.6515 241.359 60.816C239.941 60.8266 238.473 60.8572 237.061 60.8342C237.048 62.1874 237.072 63.7609 237.014 65.0938C236.894 63.9958 236.942 61.9893 236.938 60.8236C234.259 60.8353 231.3 60.9195 228.656 60.7309C223.271 60.8526 217.886 60.8719 212.504 60.789C205.367 60.7755 196.728 61.0087 189.726 60.5064C189.923 60.3761 191.151 60.4003 191.484 60.3925C191.878 59.7577 191.948 59.2352 192.062 58.4945C191.528 57.9246 190.939 58.0377 190.001 57.9411C192.175 57.5449 196.743 57.6559 199.11 57.6466C204.176 57.6438 209.243 57.612 214.307 57.5511L214.543 57.5384C214.948 57.515 216.561 57.4396 216.795 57.2212C218.607 55.5295 221.19 53.0781 222.78 51.2977L224.557 51.2962L228.47 51.2866L228.539 46.8461Z" fill="#7ACBFF"/>
<path d="M228.539 46.8461C231.217 46.8842 234.309 46.9968 236.957 46.9218L237.089 51.3226L237.104 55.654L237.074 57.7486C234.697 57.6003 231.139 57.7603 228.664 57.8101C227.361 57.845 225.863 57.7977 224.542 57.7874L224.548 55.7064L224.698 55.6837L224.557 51.2962L228.47 51.2866L228.539 46.8461Z" fill="#6DC187"/>
<path d="M232.85 51.316C234.244 51.2931 235.688 51.3171 237.089 51.3225L237.104 55.654L232.847 55.6834C232.835 54.236 232.847 52.7658 232.85 51.316Z" fill="#EFFAFB"/>
<path d="M224.698 55.6837C225.767 55.6103 227.244 55.3728 228.171 55.7552C228.651 56.2454 228.682 56.191 228.682 57.0863C228.68 57.3277 228.673 57.5689 228.664 57.8101C227.361 57.845 225.863 57.7978 224.542 57.7874L224.548 55.7065L224.698 55.6837Z" fill="#EFFAFB"/>
<path d="M222.78 51.2977L224.557 51.2961L224.698 55.6837L224.549 55.7064L224.542 57.7873C223.375 57.6442 221.636 57.6412 220.409 57.6061L214.307 57.5511L214.543 57.5384C214.948 57.515 216.561 57.4396 216.795 57.2212C218.607 55.5295 221.19 53.0781 222.78 51.2977Z" fill="#EFFAFB"/>
<path d="M220.409 57.6061C220.372 56.8983 220.266 56.5168 220.66 55.9411C221.797 55.3498 223.182 55.6308 224.548 55.7064L224.542 57.7873C223.375 57.6442 221.636 57.6412 220.409 57.6061Z" fill="#6DC187"/>
<path d="M280.224 55.6594C281.322 55.652 288.558 55.481 288.941 55.8207L288.874 57.7694C285.981 57.7412 283.088 57.739 280.196 57.7631L280.224 55.6594Z" fill="#EFFAFB"/>
<path d="M237.089 51.3225C238.198 51.3446 240.079 51.1339 240.95 51.5574C241.428 52.3068 241.255 52.3566 241.277 53.418L241.268 55.6537L237.105 55.654L237.089 51.3225Z" fill="#6DC187"/>
<path d="M237.104 55.654L241.268 55.6538C241.264 56.804 241.458 56.8126 240.926 57.5804C239.852 58.089 238.401 57.8054 237.074 57.7486L237.104 55.654Z" fill="#EFFAFB"/>
<path d="M280.178 60.8231C281.59 60.8129 283.322 60.7512 284.706 60.795C286.009 60.8142 287.3 60.848 288.601 60.793C289.09 61.6019 288.928 63.5569 288.919 64.6224C289.014 63.5852 288.978 61.9347 288.984 60.8394L293.321 60.863L298.968 60.8381C299.862 60.8225 300.986 60.8368 301.856 60.759L301.847 65.042L297.515 65.1067L297.534 69.5035L301.839 69.5033C302.001 72.239 301.956 75.6308 301.865 78.4042L297.526 78.3569L293.334 78.3773L293.295 83.1139L289.008 83.1513C288.965 80.077 289.001 76.9143 288.999 73.8322L284.701 73.8969L284.704 78.0265C281.718 78.1294 278.905 78.1095 275.915 78.0779C275.828 76.8149 275.865 75.1306 275.861 73.8358L280.202 73.83L280.174 69.5185C277.219 69.5752 274.464 69.6369 271.511 69.5141C271.279 67.1448 271.444 63.3191 271.483 60.8692C272.778 60.8556 274.789 60.7735 276.026 60.8528C277.357 60.8944 278.834 60.8432 280.178 60.8231Z" fill="#EFFAFB"/>
<path d="M298.968 60.8381C299.862 60.8225 300.986 60.8368 301.856 60.759L301.847 65.042L297.515 65.1067L297.534 69.5035L293.349 69.4884L293.321 60.863L298.968 60.8381Z" fill="#6DC187"/>
<path d="M297.535 69.5034L301.839 69.5032C302.002 72.2389 301.956 75.6306 301.865 78.404L297.526 78.3568C297.585 75.4061 297.589 72.4543 297.535 69.5034Z" fill="#6DC187"/>
<path d="M280.388 65.1209C281.826 65.1287 283.266 65.1209 284.704 65.0975L284.68 69.4924L280.343 69.4903L280.388 65.1209Z" fill="#6DC187"/>
<path d="M289.041 69.5335L293.228 69.5001L293.196 73.8238L289 73.8322C289.013 72.4054 289.041 70.9582 289.041 69.5335Z" fill="#6DC187"/>
<path d="M288.601 60.793C289.091 61.6019 288.928 63.5568 288.919 64.6223C288.25 65.4054 285.765 65.1188 284.704 65.0976C284.747 63.7441 284.706 62.167 284.706 60.7949C286.009 60.8142 287.3 60.848 288.601 60.793Z" fill="#6DC187"/>
<path d="M276.025 60.8528C277.357 60.8944 278.834 60.8433 280.178 60.8231L280.191 64.9439L276.064 64.9619L276.025 60.8528Z" fill="#6DC187"/>
<path d="M258.685 78.6346C260.114 78.6385 261.662 78.6132 263.078 78.6623L263.069 82.9749L258.756 83.0977L258.743 87.5181C260.304 87.5865 261.53 87.6238 263.084 87.5653L263.087 83.0526L267.237 83.0933L267.252 78.7351C268.636 78.7221 270.132 78.6744 271.505 78.7747L271.503 83.0145L267.311 83.0405L267.343 87.5725L271.516 87.6617L271.522 92.134L275.792 92.2235L275.788 96.4345L271.501 96.4538L271.483 92.1518L267.374 92.2271L267.322 96.394L263.08 96.386L263.076 92.0295L258.728 92.0243V87.5835L254.411 87.6045L254.4 83.1319L250.334 83.1221L250.295 82.8764C250.23 81.3805 250.254 80.1647 250.299 78.6666C251.646 78.6526 253.097 78.6114 254.43 78.6515L254.523 83.0645L258.676 83.0691C258.676 81.6039 258.657 80.0952 258.685 78.6346Z" fill="#EFFAFB"/>
<path d="M263.093 87.6382L267.235 87.5702L267.207 92.0612L263.076 92.0294L263.093 87.6382Z" fill="#6DC187"/>
<path d="M288.826 92.0123L288.813 96.4594C285.999 96.5298 282.978 96.4694 280.146 96.4598C280.114 95.0501 280.127 93.5697 280.118 92.1533C283.011 92.0717 285.895 92.1095 288.826 92.0123Z" fill="#EFFAFB"/>
<path d="M258.68 63.0925C258.674 62.3912 258.57 61.4495 258.908 60.8952C260.631 60.6753 265.243 60.8286 267.207 60.8515C267.237 62.2688 267.289 63.7267 267.259 65.1392C265.252 65.1598 260.882 65.2997 259.087 65.0613C258.591 64.5499 258.676 63.9061 258.68 63.0925Z" fill="#EFFAFB"/>
<path d="M254.426 96.4113C255.842 96.439 257.314 96.4463 258.726 96.5046C258.737 97.7679 258.804 99.5495 258.728 100.768L258.674 100.88C257.258 100.891 255.842 100.885 254.426 100.863V96.4113Z" fill="#EFFAFB"/>
<path d="M267.263 69.5042L271.511 69.5141C271.65 70.8589 271.568 72.5482 271.539 73.9291L267.317 73.9278L267.263 69.5042Z" fill="#EFFAFB"/>
<path d="M250.089 60.8003C251.204 60.7884 253.454 60.704 254.469 60.8135L254.45 65.0974L250.119 65.1385L250.089 60.8003Z" fill="#EFFAFB"/>
<path d="M237.061 60.8341C238.473 60.8571 239.941 60.8265 241.359 60.8159C241.344 62.0702 241.179 63.63 241.523 64.7498C241.974 65.1238 241.985 65.0755 242.578 65.1762L241.244 65.2134C240.374 65.0772 238.007 65.1045 237.013 65.0937C237.072 63.7608 237.048 62.1873 237.061 60.8341Z" fill="#EFFAFB"/>
<path d="M242.578 65.1763C243.256 65.065 244.75 65.1267 245.499 65.1358L245.547 69.4904C244.1 69.5015 242.836 69.4471 241.389 69.3714C241.251 68.064 241.266 66.5488 241.244 65.2136L242.578 65.1763Z" fill="#EFFAFB"/>
<path d="M277.31 80.8643C279.83 80.7221 283.019 80.724 285.52 80.8152C285.596 82.1074 285.801 88.1292 285.31 88.9706C282.532 89.0156 279.754 89.0188 276.974 88.9799C276.942 87.6366 276.612 81.641 277.31 80.8643Z" fill="#EFFAFB"/>
<path d="M279.858 83.3701L280.609 83.3614C281.417 83.3516 281.774 83.2453 282.456 83.6775C283.043 84.7001 282.792 85.184 282.554 86.4245C281.404 86.5847 280.837 86.8582 279.949 86.0811C279.594 85.2306 279.782 84.3238 279.858 83.3701Z" fill="#6DC187"/>
<path d="M258.618 69.4949L263.076 69.5063L263.102 73.848L258.646 73.8499L258.618 69.4949Z" fill="#EFFAFB"/>
<path d="M250.124 69.5008C251.524 69.4662 253.04 69.4998 254.452 69.5049L254.46 73.8708L250.143 73.9397C250.104 72.4814 250.124 70.9645 250.124 69.5008Z" fill="#EFFAFB"/>
<path d="M260.628 136.458C271.025 135.991 283.392 138.645 291.144 145.866C299.499 153.574 301.952 163.547 302.541 174.464C303.858 198.906 291.064 216.282 265.402 217.273C254.126 217.406 243.856 215.613 235.109 207.952C227.286 201.104 223.674 191.471 223.138 181.251C222.531 169.672 224.233 157.153 232.231 148.206C239.827 139.71 249.685 137.088 260.628 136.458Z" fill="url(#paint1_linear_8_495)"/>
<path d="M219.43 146.81C224.869 151.952 230.344 158.032 235.034 163.939C248.428 180.803 263.995 201.121 264.976 223.488C265.769 241.571 254.233 257.08 235.469 257.544C228.311 257.741 221.259 255.792 215.22 251.947C214.502 251.494 211.693 249.539 211.293 248.881L210.539 248.292C209.195 245.564 206.618 238.263 205.562 235.173C200.768 221.16 194.461 203.564 195.52 188.574L196.624 188.132L197.059 187.881L198.176 186.599C202.387 189.929 211.102 185.753 214.668 182.737C220.339 177.945 222.924 173.777 223.686 166.45C223.375 162.371 223.117 158.939 222.032 154.938C221.541 153.128 219.585 148.276 219.43 146.81Z" fill="#FFB86C"/>
<path d="M223.686 166.45C234.287 169.168 247.746 186.236 253.533 195.388C254.484 196.888 255.367 198.627 256.428 200.136C257.062 201.033 257.478 202.065 257.641 203.152L257.495 203.505L257.164 203.538C255.761 202.07 252.622 196.228 251.177 194.158C244.779 184.991 235.062 172.76 224.816 167.983C224.36 171.521 223.851 173.366 221.98 176.488C217.656 183.707 205.83 192.383 197.059 187.881L198.176 186.599C202.387 189.93 211.102 185.753 214.668 182.737C220.339 177.945 222.924 173.777 223.686 166.45Z" fill="#D68835"/>
<path d="M175.392 188.132C175.026 207.753 182.828 226.38 189.34 244.546C189.657 245.427 190.395 248.088 190.061 248.881L189.308 248.292C187.963 245.564 185.387 238.263 184.33 235.173C179.536 221.16 173.229 203.564 174.288 188.574L175.392 188.132Z" fill="#D68835"/>
<path d="M64.0448 35.936C73.5085 34.3896 82.4215 40.8455 83.9027 50.3199C85.3839 59.7941 78.8669 68.6624 69.3828 70.0787C59.9903 71.4813 51.226 65.041 49.7591 55.6582C48.2922 46.2754 54.6721 37.4672 64.0448 35.936Z" fill="#DCF2E2"/>
<path d="M280.995 20.16C281.06 20.1581 281.127 20.1548 281.192 20.1537C283.519 20.1197 301.178 19.7945 301.724 20.4603C302.194 21.0304 302.335 21.9714 302.415 22.6844C302.666 24.9199 302.471 27.3088 302.478 29.5632C302.486 33.1699 302.623 36.82 302.462 40.422C302.415 41.4952 302.35 41.9049 301.546 42.6439C296.374 42.8407 291.071 42.5646 285.884 42.7621C284.528 42.8138 281.653 42.8855 280.551 42.1504C280.3 41.4552 280.135 40.8214 280.131 40.068C280.224 37.2658 280.064 34.1291 280.224 31.3615C280.382 28.6139 279.334 22.0831 280.995 20.16Z" fill="#6DC187"/>
<path d="M284.041 23.444C286.193 23.3541 297.55 23.0229 298.816 23.929C299.206 25.0642 299.409 27.5769 299.273 28.8134C299.005 31.2536 299.955 37.8011 298.364 39.3996C296.43 39.5005 284.825 39.6832 283.727 39.1359C283.394 38.2618 283.166 36.4935 283.27 35.5822C283.543 33.1431 282.686 24.9488 284.041 23.444Z" fill="#EFFAFB"/>
<path d="M286.955 26.2394C289.032 26.2532 293.628 25.765 295.233 26.4228C297.015 27.1537 296.72 35.1006 295.687 36.5809C293.981 36.6753 288.051 37.1395 286.988 36.2912C285.682 35.2489 285.871 27.6021 286.955 26.2394Z" fill="#6DC187"/>
<path d="M221.812 20.1722C224.278 20.1646 241.359 19.7043 242.08 20.5881C242.556 21.172 242.623 22.3332 242.682 23.0545C242.996 26.8217 242.74 30.7828 242.747 34.5708C242.749 36.6394 243.072 39.1675 242.699 41.1848C242.561 41.9316 241.974 42.2531 241.394 42.6443C239.133 42.6783 221.89 43.0759 221.056 42.019C220.584 41.4195 220.521 40.2527 220.463 39.5198C220.305 37.5562 220.214 22.7126 220.584 21.4349C220.781 20.7475 221.264 20.5576 221.812 20.1722Z" fill="#6DC187"/>
<path d="M224.548 23.4143C227.064 23.3991 237.364 23.0473 238.852 23.8477C240.112 26.0073 239.358 34.7873 239.421 37.7157C239.438 38.5831 239.116 38.8351 238.551 39.3041C237.126 39.4147 225.179 39.7035 224.371 39.1118C223.219 38.2661 223.717 29.3226 223.633 27.4729C223.572 26.1307 223.466 24.4752 224.548 23.4143Z" fill="#EFFAFB"/>
<path d="M227.441 26.2346C229.615 26.2277 233.712 25.7466 235.517 26.3715C237.416 27.0284 237.07 35.2257 236.208 36.5876C229.832 36.5913 225.785 38.7812 226.577 30.9595C226.776 28.9915 225.967 27.9083 227.441 26.2346Z" fill="#6DC187"/>
<path d="M297.654 46.8489C298.981 46.8372 300.613 46.7816 301.908 46.889C302.066 49.768 301.958 52.8833 301.915 55.7896C300.711 55.7251 299.156 55.499 298.1 55.9217C297.545 56.4924 297.671 56.7951 297.803 57.6153C296.069 57.7153 290.718 57.8755 289.24 57.7181C288.885 57.1987 288.962 56.4891 288.941 55.8205C288.558 55.4808 281.322 55.6519 280.224 55.6592C280.291 54.3296 280.261 52.6793 280.274 51.3237L275.95 51.3007C275.948 49.8836 276.008 48.4042 276.047 46.9825L284.504 46.9728C284.556 48.4696 284.617 49.9343 284.591 51.4324C285.944 51.3757 287.412 51.113 288.581 51.5279C289.09 52.1486 288.928 52.0912 289.025 53.0586C289.108 52.4232 289.105 51.9557 289.123 51.3193C289.036 49.8 289.034 48.5057 289.049 46.9814L293.189 46.9634C293.224 48.2606 293.217 50.1179 293.336 51.3655C294.774 51.3841 296.214 51.3806 297.651 51.3549L297.654 46.8489Z" fill="#6DC187"/>
<path d="M289.049 46.9815L293.189 46.9635C293.224 48.2607 293.217 50.1179 293.336 51.3655C292.078 51.2949 290.413 51.33 289.123 51.3194C289.036 49.8001 289.034 48.5058 289.049 46.9815Z" fill="#6DC187"/>
<path d="M289.123 51.3195C290.413 51.3301 292.078 51.295 293.336 51.3656C293.362 52.7439 293.362 54.1225 293.339 55.5011L289.026 55.5236C289.017 54.8784 288.965 53.6524 289.026 53.0588C289.108 52.4233 289.106 51.9558 289.123 51.3195Z" fill="#EFFAFB"/>
<path d="M254.469 19.7233L258.722 19.728C258.732 20.9299 258.81 22.8348 258.613 23.9592C258.646 24.0558 258.743 24.3836 258.795 24.4516L258.882 27.8693L258.804 31.4616C257.829 31.4748 256.065 31.4466 255.166 31.5919L254.74 31.7627C254.35 33.2279 255.078 33.536 254.484 34.3514C253.601 34.5127 253.092 34.4573 252.477 34.9752C252.116 36.4133 252.633 37.7388 252.241 38.4423C251.403 38.5733 251.059 38.6019 250.21 38.6192C250.347 37.4554 250.275 35.5169 250.264 34.2882L246.231 34.2304L246.192 28.0339L250.258 28.0003L250.273 23.9263L254.372 23.8678C254.426 22.4869 254.456 21.1051 254.469 19.7233Z" fill="#6DC187"/>
<path d="M254.469 19.7233L258.722 19.728C258.733 20.9299 258.81 22.8348 258.613 23.9592C257.269 23.954 255.762 23.9163 254.439 23.9839L254.372 23.8678C254.426 22.4869 254.456 21.1051 254.469 19.7233Z" fill="#6DC187"/>
<path d="M258.613 23.9592C258.646 24.0558 258.743 24.3836 258.795 24.4516L258.882 27.8693C257.535 27.9276 255.948 27.9029 254.58 27.9168L254.439 23.9839C255.762 23.9164 257.269 23.954 258.613 23.9592Z" fill="#EFFAFB"/>
<path d="M213.08 11.7643C215.507 11.7689 228.437 11.3618 229.769 12.2675C234.03 17.957 217.276 14.5154 215.225 16.1525L215.141 17.0508C215.167 21.0354 215.21 25.0254 215.18 29.0087C215.171 30.011 213.879 30.9742 212.891 30.8915C211.856 30.3784 211.35 28.9749 211.335 27.8694C211.274 22.9899 211.137 17.958 211.549 13.0998C211.605 12.4375 212.553 11.9982 213.08 11.7643Z" fill="#8BD5B9"/>
<path d="M309.419 93.9377C309.95 93.9923 310.476 94.069 310.926 94.3885C311.68 94.9266 311.831 96.2437 311.899 97.0937C312.044 98.9787 311.801 100.965 311.808 102.862C311.816 105.308 312.119 107.839 311.914 110.275C311.873 110.762 311.788 111.645 311.409 111.994C309.731 113.544 297.797 112.83 295.06 112.819C294.9 112.81 294.125 112.708 294.027 112.62C288.493 107.414 305.693 108.899 308.049 108.911C308.099 104.656 307.655 99.8812 308.103 95.6762C308.203 94.7438 308.683 94.4273 309.419 93.9377Z" fill="#8BD5B9"/>
<path d="M294.276 11.7718C299.072 11.656 303.993 11.5664 308.787 11.7435C309.852 11.7829 310.746 11.8656 311.418 12.7919C312.056 13.6713 312.119 27.978 311.751 29.4943C311.591 30.1596 310.913 30.553 310.393 30.9391C308.865 30.5662 308.079 30.2231 308.044 28.4968C307.96 24.2142 308.027 19.8752 308.042 15.5921C304.415 15.6051 300.787 15.617 297.16 15.6302C295.681 15.6354 294.295 15.5864 293.152 14.5422C292.635 13.1675 293.133 12.5424 294.276 11.7718Z" fill="#8BD5B9"/>
<path d="M298.002 57.7472C300.39 57.643 320.574 57.3839 321.577 57.9622C319.678 58.1298 317.941 57.5259 316.714 58.6962C316.413 59.507 316.408 59.1195 316.679 59.8985C317.63 60.7423 319.962 60.4626 321.362 60.442C316.818 61.3992 306.708 60.2475 301.856 60.759C300.986 60.8367 299.862 60.8224 298.968 60.838C297.723 60.0793 297.959 59.0599 298.002 57.7472Z" fill="#7ACBFF"/>
<path d="M297.634 87.5326L301.884 87.5698C301.988 89.0441 301.958 90.5128 301.951 91.9907L297.591 91.995L297.634 87.5326Z" fill="#6DC187"/>
<path d="M220.285 46.9954L224.512 46.962L224.557 51.2961L222.779 51.2976C222.002 51.2653 221.049 51.2539 220.292 51.1755L220.285 46.9954Z" fill="#6DC187"/>
<path d="M246.179 19.7671C247.521 19.7279 248.866 19.7136 250.208 19.724C250.245 21.1285 250.295 22.5212 250.273 23.9264C248.911 23.9584 247.53 24.0067 246.17 23.9933L246.179 19.7671Z" fill="#6DC187"/>
<path d="M263.095 19.8607L267.263 19.7815C267.302 21.201 267.35 22.475 267.272 23.8951L263.067 23.8847L263.095 19.8607Z" fill="#6DC187"/>
<path d="M263.067 23.8848L263.037 27.8971L258.882 27.8694L258.795 24.4516L259.012 24.0188C260.14 23.809 261.859 23.8794 263.067 23.8848Z" fill="#6DC187"/>
</g>
<defs>
<linearGradient id="paint0_linear_8_495" x1="126.745" y1="111.738" x2="141.994" y2="34.8917" gradientUnits="userSpaceOnUse">
<stop stop-color="#A27670"/>
<stop offset="1" stop-color="#B8958D"/>
</linearGradient>
<linearGradient id="paint1_linear_8_495" x1="262.368" y1="136.759" x2="263.003" y2="216.923" gradientUnits="userSpaceOnUse">
<stop stop-color="#DFF5DD"/>
<stop offset="1" stop-color="#D9F0ED"/>
</linearGradient>
<clipPath id="clip0_8_495">
<rect width="321.746" height="291" fill="white"/>
</clipPath>
</defs>
</svg>
