<svg width="20" height="20" viewBox="0 0 20 20" fill="none" xmlns="http://www.w3.org/2000/svg">
<path d="M0.666667 6.66667C0.489856 6.66667 0.320286 6.59643 0.195262 6.4714C0.0702379 6.34638 0 6.17681 0 6V2C0 1.46957 0.210714 0.960859 0.585786 0.585786C0.960859 0.210714 1.46957 0 2 0H6C6.17681 0 6.34638 0.0702379 6.4714 0.195262C6.59643 0.320286 6.66667 0.489856 6.66667 0.666667C6.66667 0.843478 6.59643 1.01305 6.4714 1.13807C6.34638 1.2631 6.17681 1.33333 6 1.33333H2C1.82319 1.33333 1.65362 1.40357 1.5286 1.5286C1.40357 1.65362 1.33333 1.82319 1.33333 2V6C1.33333 6.17681 1.2631 6.34638 1.13807 6.4714C1.01305 6.59643 0.843478 6.66667 0.666667 6.66667Z" fill="#7ACBFF"/>
<path d="M6 20H2C1.46957 20 0.960859 19.7893 0.585786 19.4143C0.210714 19.0392 0 18.5305 0 18V14C0 13.8232 0.0702379 13.6537 0.195262 13.5286C0.320286 13.4036 0.489856 13.3334 0.666667 13.3334C0.843478 13.3334 1.01305 13.4036 1.13807 13.5286C1.2631 13.6537 1.33333 13.8232 1.33333 14V18C1.33333 18.1769 1.40357 18.3464 1.5286 18.4714C1.65362 18.5965 1.82319 18.6667 2 18.6667H6C6.17681 18.6667 6.34638 18.7369 6.4714 18.862C6.59643 18.987 6.66667 19.1566 6.66667 19.3334C6.66667 19.5102 6.59643 19.6798 6.4714 19.8048C6.34638 19.9298 6.17681 20 6 20Z" fill="#7ACBFF"/>
<path d="M19.3333 6.66667C19.1565 6.66667 18.987 6.59643 18.8619 6.4714C18.7369 6.34638 18.6667 6.17681 18.6667 6V2C18.6667 1.82319 18.5964 1.65362 18.4714 1.5286C18.3464 1.40357 18.1768 1.33333 18 1.33333H14C13.8232 1.33333 13.6536 1.2631 13.5286 1.13807C13.4036 1.01305 13.3333 0.843478 13.3333 0.666667C13.3333 0.489856 13.4036 0.320286 13.5286 0.195262C13.6536 0.0702379 13.8232 0 14 0H18C18.5304 0 19.0391 0.210714 19.4142 0.585786C19.7893 0.960859 20 1.46957 20 2V6C20 6.17681 19.9298 6.34638 19.8047 6.4714C19.6797 6.59643 19.5101 6.66667 19.3333 6.66667Z" fill="#7ACBFF"/>
<path d="M18 20H14C13.8232 20 13.6536 19.9298 13.5286 19.8048C13.4036 19.6798 13.3333 19.5102 13.3333 19.3334C13.3333 19.1566 13.4036 18.987 13.5286 18.862C13.6536 18.7369 13.8232 18.6667 14 18.6667H18C18.1768 18.6667 18.3464 18.5965 18.4714 18.4714C18.5964 18.3464 18.6667 18.1769 18.6667 18V14C18.6667 13.8232 18.7369 13.6537 18.8619 13.5286C18.987 13.4036 19.1565 13.3334 19.3333 13.3334C19.5101 13.3334 19.6797 13.4036 19.8047 13.5286C19.9298 13.6537 20 13.8232 20 14V18C20 18.5305 19.7893 19.0392 19.4142 19.4143C19.0391 19.7893 18.5304 20 18 20Z" fill="#7ACBFF"/>
<path d="M13.3333 3.33337H6.66666C6.13623 3.33337 5.62752 3.54409 5.25245 3.91916C4.87738 4.29423 4.66666 4.80294 4.66666 5.33337V14.6667C4.66666 15.1971 4.87738 15.7058 5.25245 16.0809C5.62752 16.456 6.13623 16.6667 6.66666 16.6667H13.3333C13.8638 16.6667 14.3725 16.456 14.7475 16.0809C15.1226 15.7058 15.3333 15.1971 15.3333 14.6667V5.33337C15.3333 4.80294 15.1226 4.29423 14.7475 3.91916C14.3725 3.54409 13.8638 3.33337 13.3333 3.33337ZM12 13.3334H8C7.82319 13.3334 7.65362 13.2631 7.52859 13.1381C7.40357 13.0131 7.33333 12.8435 7.33333 12.6667C7.33333 12.4899 7.40357 12.3203 7.52859 12.1953C7.65362 12.0703 7.82319 12 8 12H12C12.1768 12 12.3464 12.0703 12.4714 12.1953C12.5964 12.3203 12.6667 12.4899 12.6667 12.6667C12.6667 12.8435 12.5964 13.0131 12.4714 13.1381C12.3464 13.2631 12.1768 13.3334 12 13.3334ZM12 10.6667H8C7.82319 10.6667 7.65362 10.5965 7.52859 10.4714C7.40357 10.3464 7.33333 10.1769 7.33333 10C7.33333 9.82323 7.40357 9.65366 7.52859 9.52864C7.65362 9.40361 7.82319 9.33337 8 9.33337H12C12.1768 9.33337 12.3464 9.40361 12.4714 9.52864C12.5964 9.65366 12.6667 9.82323 12.6667 10C12.6667 10.1769 12.5964 10.3464 12.4714 10.4714C12.3464 10.5965 12.1768 10.6667 12 10.6667ZM12 8.00004H8C7.82319 8.00004 7.65362 7.9298 7.52859 7.80478C7.40357 7.67975 7.33333 7.51018 7.33333 7.33337C7.33333 7.15656 7.40357 6.98699 7.52859 6.86197C7.65362 6.73695 7.82319 6.66671 8 6.66671H12C12.1768 6.66671 12.3464 6.73695 12.4714 6.86197C12.5964 6.98699 12.6667 7.15656 12.6667 7.33337C12.6667 7.51018 12.5964 7.67975 12.4714 7.80478C12.3464 7.9298 12.1768 8.00004 12 8.00004Z" fill="#7ACBFF"/>
</svg>
