<svg width="20" height="20" viewBox="0 0 20 20" fill="none" xmlns="http://www.w3.org/2000/svg">
<path d="M0.666667 6.66667C0.489856 6.66667 0.320286 6.59643 0.195262 6.4714C0.0702379 6.34638 0 6.17681 0 6V2C0 1.46957 0.210714 0.960859 0.585786 0.585786C0.960859 0.210714 1.46957 0 2 0H6C6.17681 0 6.34638 0.0702379 6.4714 0.195262C6.59643 0.320286 6.66667 0.489856 6.66667 0.666667C6.66667 0.843478 6.59643 1.01305 6.4714 1.13807C6.34638 1.2631 6.17681 1.33333 6 1.33333H2C1.82319 1.33333 1.65362 1.40357 1.5286 1.5286C1.40357 1.65362 1.33333 1.82319 1.33333 2V6C1.33333 6.17681 1.2631 6.34638 1.13807 6.4714C1.01305 6.59643 0.843478 6.66667 0.666667 6.66667Z" fill="#B0B0B0"/>
<path d="M6 20H2C1.46957 20 0.960859 19.7893 0.585786 19.4143C0.210714 19.0392 0 18.5305 0 18V14C0 13.8232 0.0702379 13.6537 0.195262 13.5286C0.320286 13.4036 0.489856 13.3334 0.666667 13.3334C0.843478 13.3334 1.01305 13.4036 1.13807 13.5286C1.2631 13.6537 1.33333 13.8232 1.33333 14V18C1.33333 18.1769 1.40357 18.3464 1.5286 18.4714C1.65362 18.5965 1.82319 18.6667 2 18.6667H6C6.17681 18.6667 6.34638 18.7369 6.4714 18.862C6.59643 18.987 6.66667 19.1566 6.66667 19.3334C6.66667 19.5102 6.59643 19.6798 6.4714 19.8048C6.34638 19.9298 6.17681 20 6 20Z" fill="#B0B0B0"/>
<path d="M19.3333 6.66667C19.1565 6.66667 18.9869 6.59643 18.8619 6.4714C18.7369 6.34638 18.6666 6.17681 18.6666 6V2C18.6666 1.82319 18.5964 1.65362 18.4714 1.5286C18.3464 1.40357 18.1768 1.33333 18 1.33333H14C13.8232 1.33333 13.6536 1.2631 13.5286 1.13807C13.4036 1.01305 13.3333 0.843478 13.3333 0.666667C13.3333 0.489856 13.4036 0.320286 13.5286 0.195262C13.6536 0.0702379 13.8232 0 14 0H18C18.5304 0 19.0391 0.210714 19.4142 0.585786C19.7893 0.960859 20 1.46957 20 2V6C20 6.17681 19.9297 6.34638 19.8047 6.4714C19.6797 6.59643 19.5101 6.66667 19.3333 6.66667Z" fill="#B0B0B0"/>
<path d="M18 20H14C13.8232 20 13.6536 19.9298 13.5286 19.8048C13.4036 19.6798 13.3333 19.5102 13.3333 19.3334C13.3333 19.1566 13.4036 18.987 13.5286 18.862C13.6536 18.7369 13.8232 18.6667 14 18.6667H18C18.1768 18.6667 18.3464 18.5965 18.4714 18.4714C18.5964 18.3464 18.6666 18.1769 18.6666 18V14C18.6666 13.8232 18.7369 13.6537 18.8619 13.5286C18.9869 13.4036 19.1565 13.3334 19.3333 13.3334C19.5101 13.3334 19.6797 13.4036 19.8047 13.5286C19.9297 13.6537 20 13.8232 20 14V18C20 18.5305 19.7893 19.0392 19.4142 19.4143C19.0391 19.7893 18.5304 20 18 20Z" fill="#B0B0B0"/>
<path d="M13.3337 2.73376C14.023 2.73385 14.6841 3.00719 15.1716 3.49451C15.6592 3.9821 15.9333 4.64381 15.9333 5.33337V14.6664C15.9333 15.3559 15.6592 16.0177 15.1716 16.5052C14.6841 16.9927 14.023 17.2669 13.3337 17.267H6.66669C5.97712 17.267 5.31541 16.9928 4.82782 16.5052C4.34033 16.0177 4.06708 15.3559 4.06708 14.6664V5.33337C4.06708 4.64381 4.34023 3.9821 4.82782 3.49451C5.31541 3.00691 5.97712 2.73376 6.66669 2.73376H13.3337ZM7.99969 12.6C7.98213 12.6001 7.96524 12.6071 7.95282 12.6195C7.94039 12.6319 7.93337 12.6488 7.93329 12.6664C7.93329 12.6841 7.94032 12.7017 7.95282 12.7142C7.96523 12.7266 7.98221 12.7337 7.99969 12.7338H11.9997C12.0174 12.7338 12.035 12.7267 12.0475 12.7142C12.06 12.7017 12.0671 12.6841 12.0671 12.6664C12.067 12.6489 12.0599 12.6319 12.0475 12.6195C12.035 12.607 12.0174 12.6 11.9997 12.6H7.99969ZM7.99969 9.93298C7.98221 9.93307 7.96523 9.94019 7.95282 9.95251C7.94032 9.96502 7.93329 9.98269 7.93329 10.0004C7.93337 10.0179 7.94039 10.0348 7.95282 10.0472C7.96524 10.0597 7.98213 10.0667 7.99969 10.0668H11.9997C12.0174 10.0668 12.035 10.0597 12.0475 10.0472C12.0599 10.0348 12.067 10.0179 12.0671 10.0004C12.0671 9.98268 12.06 9.96502 12.0475 9.95251C12.035 9.94001 12.0174 9.93298 11.9997 9.93298H7.99969ZM7.99969 7.26697C7.98213 7.26705 7.96525 7.27407 7.95282 7.2865C7.94042 7.29899 7.93329 7.31577 7.93329 7.33337C7.93329 7.35098 7.94042 7.36776 7.95282 7.38025C7.96525 7.39267 7.98213 7.39969 7.99969 7.39978H11.9997C12.0174 7.39978 12.035 7.39275 12.0475 7.38025C12.0598 7.36778 12.0671 7.3509 12.0671 7.33337C12.0671 7.31585 12.0598 7.29897 12.0475 7.2865C12.035 7.274 12.0174 7.26697 11.9997 7.26697H7.99969Z" stroke="#B0B0B0" stroke-width="1.2"/>
</svg>
